<svg width="28" height="28" viewBox="0 0 28 28" fill="none" xmlns="http://www.w3.org/2000/svg">
<path d="M2.8 28C2.03 28 1.37107 27.7261 0.8232 27.1782C0.2744 26.6294 0 25.97 0 25.2V13.055C0 12.495 0.151667 11.9817 0.455 11.515C0.758333 11.0483 1.16667 10.6983 1.68 10.465L7.84 7.84C8.30667 7.65333 8.75 7.69393 9.17 7.9618C9.59 8.2306 9.8 8.62167 9.8 9.135V9.8L14.875 7.77C15.3417 7.58333 15.7789 7.63 16.1868 7.91C16.5956 8.19 16.8 8.575 16.8 9.065V11.2H28V25.2C28 25.97 27.7261 26.6294 27.1782 27.1782C26.6294 27.7261 25.97 28 25.2 28H2.8ZM27.72 9.1H21.245L22.26 1.225C22.3067 0.875 22.4583 0.583333 22.715 0.35C22.9717 0.116667 23.275 0 23.625 0H25.375C25.725 0 26.0283 0.116667 26.285 0.35C26.5417 0.583333 26.6933 0.875 26.74 1.225L27.72 9.1ZM14 22.4C14.3967 22.4 14.7294 22.2656 14.9982 21.9968C15.2661 21.7289 15.4 21.3967 15.4 21V18.2C15.4 17.8033 15.2661 17.4706 14.9982 17.2018C14.7294 16.9339 14.3967 16.8 14 16.8C13.6033 16.8 13.2711 16.9339 13.0032 17.2018C12.7344 17.4706 12.6 17.8033 12.6 18.2V21C12.6 21.3967 12.7344 21.7289 13.0032 21.9968C13.2711 22.2656 13.6033 22.4 14 22.4ZM8.4 22.4C8.79667 22.4 9.1294 22.2656 9.3982 21.9968C9.66607 21.7289 9.8 21.3967 9.8 21V18.2C9.8 17.8033 9.66607 17.4706 9.3982 17.2018C9.1294 16.9339 8.79667 16.8 8.4 16.8C8.00333 16.8 7.6706 16.9339 7.4018 17.2018C7.13393 17.4706 7 17.8033 7 18.2V21C7 21.3967 7.13393 21.7289 7.4018 21.9968C7.6706 22.2656 8.00333 22.4 8.4 22.4ZM19.6 22.4C19.9967 22.4 20.3289 22.2656 20.5968 21.9968C20.8656 21.7289 21 21.3967 21 21V18.2C21 17.8033 20.8656 17.4706 20.5968 17.2018C20.3289 16.9339 19.9967 16.8 19.6 16.8C19.2033 16.8 18.8711 16.9339 18.6032 17.2018C18.3344 17.4706 18.2 17.8033 18.2 18.2V21C18.2 21.3967 18.3344 21.7289 18.6032 21.9968C18.8711 22.2656 19.2033 22.4 19.6 22.4Z" fill="#D4FFE0"/>
</svg>
