<svg width="40" height="28" viewBox="0 0 40 28" fill="none" xmlns="http://www.w3.org/2000/svg">
<path fill-rule="evenodd" clip-rule="evenodd" d="M15.3725 0H23.6078V8.23529H15.3725V0ZM18.1176 2.7451H20.8627V5.4902H18.1176V2.7451ZM0 11.5294V28H2.7451H3.29412H3.45817H8.78431H35.7341H39.0282V11.5294H35.7341H7.68627H3.45817H3.29412H1.64706H0ZM3.29412 14.8235V24.7059H3.45817H8.78431H35.7341V14.8235H7.68627H3.45817H3.29412ZM7.13725 22.5098C8.65333 22.5098 9.88235 21.2808 9.88235 19.7647C9.88235 18.2486 8.65333 17.0196 7.13725 17.0196C5.62118 17.0196 4.39216 18.2486 4.39216 19.7647C4.39216 21.2808 5.62118 22.5098 7.13725 22.5098ZM15.3725 22.5098C16.8886 22.5098 18.1176 21.2808 18.1176 19.7647C18.1176 18.2486 16.8886 17.0196 15.3725 17.0196C13.8565 17.0196 12.6274 18.2486 12.6274 19.7647C12.6274 21.2808 13.8565 22.5098 15.3725 22.5098ZM26.3529 19.7647C26.3529 21.2808 25.1239 22.5098 23.6078 22.5098C22.0918 22.5098 20.8627 21.2808 20.8627 19.7647C20.8627 18.2486 22.0918 17.0196 23.6078 17.0196C25.1239 17.0196 26.3529 18.2486 26.3529 19.7647ZM31.8431 22.5098C33.3592 22.5098 34.5882 21.2808 34.5882 19.7647C34.5882 18.2486 33.3592 17.0196 31.8431 17.0196C30.3271 17.0196 29.098 18.2486 29.098 19.7647C29.098 21.2808 30.3271 22.5098 31.8431 22.5098ZM35.6863 0H27.451V8.23529H35.6863V0ZM32.9412 2.7451H30.1961V5.4902H32.9412V2.7451ZM11.5294 0H3.29412V8.23529H11.5294V0Z" fill="#D4FFE0"/>
</svg>
