<svg width="28" height="28" viewBox="0 0 28 28" fill="none" xmlns="http://www.w3.org/2000/svg">
<path d="M1.12035 4.86267C0.887746 4.97757 0.679146 5.13908 0.506461 5.33796C0.333775 5.53685 0.200387 5.76922 0.11391 6.0218C0.0274343 6.27438 -0.0104361 6.54223 0.00246212 6.81006C0.0153603 7.07789 0.0787743 7.34045 0.189083 7.58275C0.299392 7.82505 0.454436 8.04235 0.645362 8.22223C0.836288 8.40211 1.05936 8.54106 1.30183 8.63114C1.54431 8.72122 1.80145 8.76067 2.05856 8.74723C2.31567 8.7338 2.56772 8.66774 2.80033 8.55283C3.2701 8.32077 3.63212 7.90382 3.80677 7.3937C3.98142 6.88359 3.95438 6.3221 3.7316 5.83275C3.50882 5.3434 3.10855 4.96629 2.61885 4.78436C2.12914 4.60243 1.59012 4.6306 1.12035 4.86267ZM1.30851 3.57233C1.76572 3.46977 2.23935 3.47703 2.69346 3.59354C3.14758 3.71005 3.57027 3.93276 3.92945 4.24478C4.28864 4.5568 4.57489 4.94993 4.7665 5.39435C4.95811 5.83877 5.05004 6.32281 5.03532 6.80975C5.0206 7.29669 4.89961 7.77375 4.68154 8.20473C4.46347 8.63572 4.15404 9.0093 3.77672 9.29716C3.3994 9.58502 2.9641 9.77959 2.50384 9.86611C2.04359 9.95263 1.57046 9.92882 1.12035 9.7965V20.7083C1.12035 22.0234 1.62184 23.2845 2.5145 24.2144C3.40717 25.1443 4.61788 25.6667 5.88029 25.6667H14.0002C12.9072 24.1534 12.3174 22.3104 12.3202 20.4167C12.3202 18.7017 12.794 17.101 13.6138 15.75H8.68025C8.45747 15.75 8.24382 15.6578 8.08629 15.4937C7.92876 15.3296 7.84026 15.1071 7.84026 14.875C7.84026 14.6429 7.92876 14.4204 8.08629 14.2563C8.24382 14.0922 8.45747 14 8.68025 14H15.0082C16.56 12.4971 18.6012 11.6632 20.7201 11.6667C22.6106 11.6667 24.3567 12.3177 25.76 13.4167V4.95833C25.76 3.6433 25.2585 2.38213 24.3659 1.45226C23.4732 0.522394 22.2625 0 21.0001 0H5.88029C4.8498 2.10275e-05 3.84712 0.348235 3.02278 0.992367C2.19843 1.6365 1.59691 2.54179 1.30851 3.57233ZM8.68025 9.33333H18.2001C18.4229 9.33333 18.6366 9.42552 18.7941 9.58962C18.9516 9.75371 19.0401 9.97627 19.0401 10.2083C19.0401 10.4404 18.9516 10.663 18.7941 10.8271C18.6366 10.9911 18.4229 11.0833 18.2001 11.0833H8.68025C8.45747 11.0833 8.24382 10.9911 8.08629 10.8271C7.92876 10.663 7.84026 10.4404 7.84026 10.2083C7.84026 9.97627 7.92876 9.75371 8.08629 9.58962C8.24382 9.42552 8.45747 9.33333 8.68025 9.33333ZM28 20.4167C28 22.4279 27.233 24.3567 25.8678 25.7789C24.5025 27.201 22.6508 28 20.7201 28C18.7893 28 16.9377 27.201 15.5724 25.7789C14.2072 24.3567 13.4402 22.4279 13.4402 20.4167C13.4402 18.4054 14.2072 16.4766 15.5724 15.0544C16.9377 13.6323 18.7893 12.8333 20.7201 12.8333C22.6508 12.8333 24.5025 13.6323 25.8678 15.0544C27.233 16.4766 28 18.4054 28 20.4167ZM17.7566 16.5037C17.6515 16.3941 17.5088 16.3326 17.3601 16.3326C17.2114 16.3326 17.0688 16.3941 16.9637 16.5037C16.8585 16.6132 16.7994 16.7618 16.7994 16.9167C16.7994 17.0716 16.8585 17.2201 16.9637 17.3297L19.9283 20.4167L16.9637 23.5037C16.8585 23.6132 16.7994 23.7618 16.7994 23.9167C16.7994 24.0716 16.8585 24.2201 16.9637 24.3297C17.0688 24.4392 17.2114 24.5007 17.3601 24.5007C17.5088 24.5007 17.6515 24.4392 17.7566 24.3297L20.7201 21.2415L23.6836 24.3297C23.7887 24.4392 23.9313 24.5007 24.0801 24.5007C24.2288 24.5007 24.3714 24.4392 24.4765 24.3297C24.5817 24.2201 24.6408 24.0716 24.6408 23.9167C24.6408 23.7618 24.5817 23.6132 24.4765 23.5037L21.5119 20.4167L24.4765 17.3297C24.5817 17.2201 24.6408 17.0716 24.6408 16.9167C24.6408 16.7618 24.5817 16.6132 24.4765 16.5037C24.3714 16.3941 24.2288 16.3326 24.0801 16.3326C23.9313 16.3326 23.7887 16.3941 23.6836 16.5037L20.7201 19.5918L17.7566 16.5037Z" fill="#D4FFE0"/>
</svg>
