<svg width="32" height="28" viewBox="0 0 32 28" fill="none" xmlns="http://www.w3.org/2000/svg">
<path fill-rule="evenodd" clip-rule="evenodd" d="M12.2108 0.241566C11.3398 0.789113 10.6045 2.10577 10.3641 3.54857C10.2134 4.45265 10.2902 6.29658 10.5116 7.09336C10.8101 8.16687 11.229 8.91035 11.8278 9.42952C12.2935 9.83341 12.4848 9.91363 13.079 9.95476C13.9628 10.016 14.536 9.67266 15.1365 8.72238L15.5544 8.06101L15.5313 6.44936L15.5081 4.83771L14.4591 4.79717L13.4101 4.75662V5.55745V6.35828H13.9449H14.4797V6.92465C14.4797 7.46235 14.4581 7.50985 14.0522 7.86595C12.6596 9.08732 11.0292 6.95752 11.3598 4.34882C11.6853 1.78037 13.4898 0.862969 14.5868 2.70821L14.8172 3.09602L15.1434 2.4555L15.4694 1.81498L15.2019 1.32898C15.0547 1.06166 14.7332 0.669785 14.4873 0.458065C13.8943 -0.0525534 12.8386 -0.153055 12.2108 0.241566ZM0.667648 0.404194C0.514703 0.547561 0.302026 0.919592 0.194989 1.2308L0.00041288 1.79659L1.50503e-06 10.9491C-0.000245315 17.03 0.0298667 20.359 0.0898438 20.8689C0.41943 23.6714 1.75152 26.115 3.3435 26.8375C3.78728 27.0388 4.79118 27.0669 11.5592 27.0669H19.2694L19.2156 26.6686C19.148 26.1684 18.9374 25.6513 18.6439 25.2656C18.4195 24.9707 18.3296 24.9662 11.0755 24.8946L3.7343 24.8222L3.111 24.2799C2.19546 23.4834 1.62062 22.2361 1.36138 20.4836C1.25212 19.7449 1.23369 18.2155 1.23369 9.87584C1.23369 0.68948 1.22546 0.131507 1.08971 0.137299C1.01056 0.14063 0.820594 0.260682 0.667648 0.404194ZM2.63233 4.98224V9.85687L4.13382 9.8085C5.57533 9.76216 5.65192 9.74478 6.05185 9.37376C6.54961 8.91224 7.02827 8.01829 7.2695 7.10002C7.41199 6.5574 7.44531 6.1564 7.44531 4.98253C7.44531 3.69208 7.42039 3.44517 7.21651 2.71458C6.95299 1.77024 6.47902 0.957099 5.9333 0.51353C5.59952 0.242146 5.37458 0.198411 4.09268 0.155981L2.63233 0.107757V4.98224ZM8.30918 4.98253V9.83384H8.84396H9.37873V4.98253V0.131217H8.84396H8.30918V4.98253ZM16.372 4.98253V9.83384H16.9067H17.4415V4.98253V0.131217H16.9067H16.372V4.98253ZM18.1161 0.963905L18.1408 1.79659L18.9019 1.8383L19.6629 1.87986V5.85692V9.83384H20.1977H20.7324V5.85692V1.87986L21.4935 1.8383L22.2545 1.79659L22.2792 0.963905L22.3039 0.131217H20.1977H18.0915L18.1161 0.963905ZM23.8621 1.32594C23.6887 1.98312 23.1172 4.11407 22.5921 6.06169C22.0671 8.00931 21.6374 9.65471 21.6374 9.71828C21.6374 9.78185 21.8926 9.83384 22.2044 9.83384H22.7713L23.0042 8.89254L23.2372 7.95124H24.6055H25.9739L26.2067 8.89254L26.4396 9.83384H27.0361H27.6326L27.0533 7.69782C26.7347 6.52307 26.3709 5.17079 26.2449 4.6929C26.1189 4.21501 25.7921 2.99306 25.5186 1.97761L25.0214 0.131217H24.5994H24.1773L23.8621 1.32594ZM28.2193 4.98253V9.83384H30.0704H31.9216V8.96857V8.10344L30.6258 8.06348L29.33 8.02365L29.3081 4.07743L29.2862 0.131217H28.7528H28.2193V4.98253ZM5.11024 1.7265C5.60758 1.96965 5.94983 2.47042 6.19065 3.30702C6.55973 4.58936 6.47671 6.10282 5.97912 7.16533C5.61079 7.95182 5.19045 8.23392 4.38064 8.23769L3.70188 8.24087V4.91012V1.57937L4.25723 1.58024C4.56263 1.58067 4.94651 1.64642 5.11024 1.7265ZM24.9699 4.22225C25.141 4.87942 25.3318 5.6287 25.3938 5.88763L25.5065 6.35828H24.5993H23.6921L23.8062 5.88763C24.1465 4.4835 24.5513 3.02752 24.6014 3.02752C24.6329 3.02752 24.7987 3.56508 24.9699 4.22225ZM14.5197 11.1001C12.4055 12.4276 11.459 16.3294 12.4187 19.7609C12.7366 20.8974 13.4073 22.0189 14.1293 22.6209C14.6547 23.0588 14.7376 23.0844 15.6315 23.0844C16.5254 23.0844 16.6083 23.0588 17.1337 22.6209C18.606 21.3933 19.4313 18.7336 19.1779 16.0329C18.9887 14.0171 18.2362 12.2844 17.1725 11.4157C16.6438 10.9838 16.4862 10.9249 15.7549 10.8855C15.1238 10.8515 14.8361 10.9014 14.5197 11.1001ZM2.63233 11.1605C2.63233 11.2593 2.82008 12.3535 3.04962 13.5919C4.26735 20.1628 4.78912 22.9443 4.81183 22.9854C4.88267 23.1135 5.53674 22.6669 5.75789 22.3394C6.11726 21.8072 6.2173 21.4015 6.70963 18.4812C6.95036 17.0536 7.16542 15.8537 7.18763 15.8146C7.20985 15.7755 7.30718 16.2222 7.40401 16.8073C8.10136 21.0218 8.24954 21.7109 8.56637 22.2148C8.82586 22.6274 9.50338 23.1408 9.58343 22.9854C9.6179 22.9185 11.6622 11.8613 11.7282 11.3845L11.7842 10.9801L11.1024 11.0225L10.4204 11.0648L9.70898 14.8229C9.31761 16.8897 8.9765 18.5188 8.95083 18.4433C8.91315 18.332 8.5017 15.8338 7.79999 11.4566L7.72356 10.9795L7.18533 11.0222L6.64718 11.0648L6.07612 14.6001C5.76209 16.5446 5.47364 18.2343 5.4353 18.3551C5.38725 18.5061 5.1494 17.4013 4.67402 14.8197L3.9826 11.0648L3.30747 11.0228C2.81185 10.9918 2.63233 11.0284 2.63233 11.1605ZM20.2764 11.1737C20.2547 11.2733 20.2465 13.9615 20.2584 17.1473L20.2799 22.9396L20.9176 22.9819L21.5552 23.0242V20.6119V18.1994L22.089 18.2592C22.9713 18.3581 23.1841 18.7818 23.6401 21.3483L23.923 22.9396L24.6414 22.9818C25.3041 23.0206 25.3553 23.0036 25.3004 22.7645C25.2677 22.6219 25.1013 21.8209 24.9306 20.9846C24.4683 18.7204 24.3991 18.4728 24.1078 18.0414L23.8408 17.6459L24.2235 17.053C24.732 16.2651 24.9364 15.5333 24.9392 14.4907C24.9436 12.886 24.433 11.6521 23.5801 11.2063C23.0387 10.9233 20.3368 10.8966 20.2764 11.1737ZM26.1821 16.966L26.2036 22.9396L26.8412 22.9819L27.4788 23.0242V20.5648C27.4788 19.2121 27.513 18.0682 27.5547 18.0229C27.6176 17.9544 29.3203 21.1109 30.0207 22.5947C30.2134 23.0029 30.2354 23.012 31.0285 23.012C31.4744 23.012 31.8393 22.9585 31.8393 22.8929C31.8393 22.8274 31.1515 21.4505 30.3108 19.8332L28.7824 16.8927L29.06 16.3682C29.2128 16.0797 29.7781 14.9965 30.3164 13.9611C30.8547 12.9256 31.4251 11.8342 31.5839 11.5354L31.8727 10.9924H31.0822H30.2917L28.9496 13.588C28.2113 15.0156 27.5785 16.1521 27.5431 16.1138C27.5077 16.0752 27.4788 14.9073 27.4788 13.5181V10.9924H26.8198H26.1607L26.1821 16.966ZM23.0934 13.0134C23.8064 13.7788 23.8327 15.3703 23.1453 16.163C22.9852 16.3476 22.7517 16.4153 22.262 16.4184L21.5963 16.4229L21.5733 14.5765L21.5502 12.7301L22.1903 12.7307C22.6796 12.7312 22.8924 12.7978 23.0934 13.0134ZM16.7266 13.5029C17.43 14.2284 17.9351 15.6912 17.9351 17.0022C17.9351 17.6101 17.7183 18.793 17.5235 19.2476L17.3721 19.6009L17.0102 18.9169C16.6224 18.1839 16.5272 18.1286 16.2074 18.4504C16.0943 18.5642 15.8536 18.6573 15.6726 18.6573C15.4916 18.6573 15.251 18.5642 15.1379 18.4504C14.8151 18.1257 14.7198 18.1843 14.3043 18.9633L13.9148 19.6936L13.6943 19.0312C13.573 18.667 13.4383 18.094 13.3951 17.758C13.1705 16.0114 13.8501 13.8891 14.8404 13.2453C15.3682 12.902 16.2626 13.0243 16.7266 13.5029ZM15.468 14.7348C15.134 14.8195 14.8196 15.3121 14.7178 15.9103C14.598 16.6141 14.6656 17.0949 14.9683 17.6912C15.1824 18.1129 15.2527 18.1607 15.6592 18.1607C16.0236 18.1607 16.1528 18.0931 16.3218 17.8136C17.0895 16.544 16.5143 14.4695 15.468 14.7348ZM20.3837 24.0347C19.8501 24.5307 19.5956 25.8511 19.8608 26.7483C20.2499 28.0646 21.2187 28.4112 21.8476 27.4589L22.0604 27.1367L21.8538 26.7949L21.6472 26.4531L21.4255 26.76C21.1276 27.1726 20.7741 27.1535 20.5231 26.7113C19.9953 25.7825 20.5965 24.3159 21.2935 24.8318C21.4374 24.9384 21.5552 25.1085 21.5552 25.2102C21.5552 25.3118 21.654 25.2209 21.7748 25.0083C21.9691 24.6663 21.981 24.593 21.8777 24.3736C21.5733 23.7276 20.8828 23.5709 20.3837 24.0347ZM22.2134 25.9083V27.9358H23.0361H23.8588V27.5013V27.0669H23.324H22.7893V26.6324V26.198H23.3295H23.8698L23.8437 25.7997C23.8188 25.418 23.7963 25.3997 23.3035 25.3583C22.8191 25.3178 22.7893 25.2946 22.7893 24.9601C22.7893 24.6196 22.8112 24.605 23.324 24.605C23.8396 24.605 23.8588 24.592 23.8588 24.243V23.8809H23.0361H22.2134V25.9083ZM24.1056 25.9083V27.9358H24.3936H24.6816L24.6838 26.741L24.686 25.5463L25.1157 26.7404C25.5098 27.8355 25.5676 27.9347 25.8128 27.9352L26.0802 27.9358V25.9083V23.8809H25.7922H25.5043L25.5035 24.9308L25.5028 25.9807L25.1127 24.9333C24.744 23.9431 24.7058 23.8857 24.4142 23.8834L24.1056 23.8809V25.9083ZM26.327 24.3154C26.327 24.7154 26.3499 24.7498 26.615 24.7498H26.9029V26.3428V27.9358H27.1909H27.4788V26.3428V24.7498H27.7668C28.0319 24.7498 28.0548 24.7154 28.0548 24.3154V23.8809H27.1909H26.327V24.3154ZM28.3016 25.9083V27.9358H29.0694C29.4918 27.9358 29.8567 27.9016 29.8804 27.8599C29.9041 27.8183 29.906 27.6228 29.8845 27.4254C29.8483 27.0922 29.8113 27.0669 29.3615 27.0669C28.8786 27.0669 28.8775 27.0658 28.8775 26.6324V26.198H29.3711H29.8648V25.7635V25.3291H29.3711C28.902 25.3291 28.8775 25.3114 28.8775 24.974C28.8775 24.64 28.9078 24.6163 29.3852 24.5757C29.8449 24.5366 29.8941 24.5017 29.9062 24.2068C29.9192 23.8893 29.8986 23.8809 29.1106 23.8809H28.3016V25.9083ZM30.1939 25.9083V27.9358H30.4818H30.7698V27.1393C30.7698 26.7012 30.7997 26.3428 30.8363 26.3428C30.9926 26.3428 31.1827 26.7451 31.2811 27.2841C31.3768 27.8083 31.4159 27.8675 31.6934 27.9081L32 27.9528L31.8779 27.3288C31.8109 26.9856 31.7147 26.5641 31.6643 26.3922C31.5923 26.1461 31.6011 26.0081 31.706 25.7444C31.8877 25.288 31.8734 24.7204 31.6688 24.2625C31.5102 23.9076 31.4526 23.8809 30.846 23.8809H30.1939V25.9083ZM31.25 25.0231C31.2794 25.3886 31.1523 25.6128 30.9137 25.6165C30.8033 25.6181 30.7698 25.4984 30.7698 25.1023C30.7698 24.6243 30.7866 24.5892 30.996 24.6316C31.1625 24.6652 31.2296 24.7688 31.25 25.0231Z" fill="#D4FFE0"/>
</svg>
