<svg width="28" height="28" viewBox="0 0 28 28" fill="none" xmlns="http://www.w3.org/2000/svg">
<path d="M24 7.5V20.5C24 21.2956 23.6839 22.0587 23.1213 22.6213C22.5587 23.1839 21.7956 23.5 21 23.5H7C6.20435 23.5 5.44129 23.1839 4.87868 22.6213C4.31607 22.0587 4 21.2956 4 20.5V7.5C4 6.70435 4.31607 5.94129 4.87868 5.37868C5.44129 4.81607 6.20435 4.5 7 4.5H21C21.7956 4.5 22.5587 4.81607 23.1213 5.37868C23.6839 5.94129 24 6.70435 24 7.5ZM7 8.5V10.5H21V8.5H7ZM7 13.5V15.5H21V13.5H7ZM7 18.5V20.5H14V18.5H7ZM20.7071 17.7929L18 20.5L16.2929 18.7929C16.1054 18.6054 15.851 18.5 15.5858 18.5C15.3206 18.5 15.0662 18.6054 14.8787 18.7929C14.6912 18.9804 14.5858 19.2348 14.5858 19.5C14.5858 19.7652 14.6912 20.0196 14.8787 20.2071L17.2929 22.6213C17.4804 22.8089 17.7348 22.9142 18 22.9142C18.2652 22.9142 18.5196 22.8089 18.7071 22.6213L22.1213 19.2071C22.3089 19.0196 22.4142 18.7652 22.4142 18.5C22.4142 18.2348 22.3089 17.9804 22.1213 17.7929C21.9338 17.6054 21.6794 17.5 21.4142 17.5C21.149 17.5 20.8946 17.6054 20.7071 17.7929Z" fill="#D4FFE0"/>
</svg>