<svg width="28" height="28" viewBox="0 0 28 28" fill="none" xmlns="http://www.w3.org/2000/svg">
<path fill-rule="evenodd" clip-rule="evenodd" d="M7.68251 8.30258H8.10251V7.91494C8.10506 6.78772 8.41373 5.68374 8.9936 4.72786C9.57347 3.77198 10.4014 3.00236 11.3838 2.50605C11.0929 1.81602 10.6261 1.22002 10.033 0.781363C9.43978 0.342704 8.74235 0.0777605 8.01475 0.0146727C7.28715 -0.0484151 6.55655 0.0927085 5.90054 0.423055C5.24454 0.753401 4.68763 1.26063 4.28896 1.89088C3.8903 2.52113 3.66476 3.25085 3.63631 4.00255C3.60785 4.75425 3.77754 5.49986 4.12736 6.16018C4.47718 6.8205 4.99406 7.37087 5.6231 7.75285C6.25214 8.13483 6.96985 8.33414 7.70001 8.32962L7.68251 8.30258ZM19.915 7.87888V8.26652H20.335C21.0554 8.25907 21.7606 8.05166 22.3763 7.66612C22.9919 7.28059 23.4953 6.73118 23.8335 6.07574C24.1716 5.42029 24.332 4.68305 24.2977 3.94162C24.2635 3.20018 24.0358 2.48197 23.6388 1.86258C23.2418 1.24319 22.69 0.745538 22.0415 0.421998C21.3931 0.0984576 20.672 -0.0390013 19.9542 0.0240896C19.2363 0.0871806 18.5482 0.348488 17.9623 0.780507C17.3765 1.21253 16.9145 1.79928 16.625 2.479C17.6076 2.97337 18.4365 3.74105 19.0179 4.69527C19.5993 5.6495 19.91 6.75225 19.915 7.87888ZM17.7537 12.5395C19.4935 12.8943 21.1756 13.5013 22.75 14.3425C22.9718 14.468 23.1727 14.6293 23.345 14.8203H28V11.7372C28.0008 11.619 27.9703 11.5027 27.9117 11.4011C27.8531 11.2994 27.7687 11.2161 27.6675 11.1603C25.3996 9.93815 22.8768 9.30384 20.3175 9.31224H19.74C19.4368 10.5822 18.7393 11.7154 17.7537 12.5395ZM3.96376 16.5692C3.96216 16.1152 4.08117 15.6693 4.3079 15.28C4.53463 14.8907 4.86043 14.5727 5.25001 14.3605C6.82438 13.5194 8.50653 12.9123 10.2463 12.5576C9.26544 11.7404 8.56846 10.6174 8.26001 9.35731H7.68251C5.12316 9.34892 2.60038 9.98323 0.332517 11.2054C0.231339 11.2612 0.146891 11.3444 0.0882912 11.4461C0.0296918 11.5478 -0.000831743 11.664 1.70181e-05 11.7823V17.5428H3.96376V16.5692ZM17.0275 21.7707H22.2425V23.0328H17.0275V21.7707ZM14 12.1159C16.3003 12.1159 18.165 10.219 18.165 7.87894C18.165 5.53893 16.3003 3.64198 14 3.64198C11.6998 3.64198 9.83502 5.53893 9.83502 7.87894C9.83502 10.219 11.6998 12.1159 14 12.1159ZM20.9474 16.8757H26.9587C27.1907 16.8757 27.4133 16.9707 27.5774 17.1398C27.7415 17.3088 27.8337 17.5381 27.8337 17.7772V27.0985C27.8337 27.3376 27.7415 27.5669 27.5774 27.736C27.4133 27.905 27.1907 28 26.9587 28H12.8099C12.5779 28 12.3553 27.905 12.1912 27.736C12.0271 27.5669 11.9349 27.3376 11.9349 27.0985V21.6085H5.7137V16.5512C5.71283 16.4249 5.74588 16.3008 5.80919 16.1926C5.8725 16.0844 5.96361 15.9964 6.07245 15.9382C8.51599 14.6123 11.2382 13.925 13.9999 13.9369C15.1762 13.9456 16.3487 14.0755 17.4999 14.3245V16.8757H19.1974V15.9742C19.1974 15.7352 19.2896 15.5059 19.4537 15.3368C19.6178 15.1677 19.8404 15.0728 20.0724 15.0728C20.3045 15.0728 20.5271 15.1677 20.6912 15.3368C20.8552 15.5059 20.9474 15.7352 20.9474 15.9742V16.8757ZM13.6849 26.2151H26.0837V18.6787H20.9474V19.499C20.9474 19.7381 20.8552 19.9674 20.6912 20.1365C20.5271 20.3055 20.3045 20.4005 20.0724 20.4005C19.8404 20.4005 19.6178 20.3055 19.4537 20.1365C19.2896 19.9674 19.1974 19.7381 19.1974 19.499V18.6787H13.6849V26.2151Z" fill="#D4FFE0"/>
</svg>
