<svg width="28" height="28" viewBox="0 0 28 28" fill="none" xmlns="http://www.w3.org/2000/svg">
<path fill-rule="evenodd" clip-rule="evenodd" d="M20.2222 10.1111C20.218 12.2477 19.5252 14.326 18.2467 16.0378L28 25.8067L25.8067 28L16.0378 18.2467C14.3733 19.4756 12.3356 20.2222 10.1111 20.2222C8.11133 20.2222 6.15645 19.6292 4.49369 18.5182C2.83092 17.4072 1.53495 15.828 0.769667 13.9805C0.00438099 12.1329 -0.195853 10.0999 0.194287 8.13854C0.584426 6.17717 1.54742 4.37555 2.96148 2.96148C4.37555 1.54742 6.17717 0.584426 8.13854 0.194287C10.0999 -0.195853 12.1329 0.00438099 13.9805 0.769667C15.828 1.53495 17.4072 2.83092 18.5182 4.49369C19.6292 6.15645 20.2222 8.11133 20.2222 10.1111ZM3.11112 10.1111C3.11112 13.9845 6.23778 17.1111 10.1111 17.1111C13.9845 17.1111 17.1111 13.9845 17.1111 10.1111C17.1111 6.23778 13.9845 3.11112 10.1111 3.11112C6.23778 3.11112 3.11112 6.23778 3.11112 10.1111ZM8.88216 8.46223L10.111 4.66668L11.3399 8.46223H15.1666L12.0399 10.9356L13.2377 14.7778L10.111 12.3978L6.98438 14.7778L8.18216 10.9356L5.05549 8.46223H8.88216Z" fill="#D4FFE0"/>
</svg>
