<svg width="29" height="29" viewBox="0 0 29 29" fill="none" xmlns="http://www.w3.org/2000/svg">
<path d="M6.39959 0.199951C5.40947 0.199951 4.4599 0.568601 3.75977 1.2248C3.05965 1.88101 2.66633 2.77101 2.66633 3.69902V12.0233C3.86522 11.2722 5.25025 10.823 6.68806 10.719C8.12587 10.615 9.56803 10.8597 10.8757 11.4295C12.1833 11.9994 13.3124 12.8751 14.1543 13.9725C14.9962 15.0699 15.5224 16.352 15.6823 17.6953H22.2697C22.5172 17.6953 22.7546 17.7874 22.9296 17.9515C23.1047 18.1155 23.203 18.338 23.203 18.57C23.203 18.802 23.1047 19.0245 22.9296 19.1886C22.7546 19.3526 22.5172 19.4448 22.2697 19.4448H15.6805C15.5765 20.3183 15.3172 21.1692 14.9133 21.9624L17.8271 24.6934H25.0678C26.0579 24.6934 27.0075 24.3248 27.7076 23.6685C28.4077 23.0123 28.801 22.1223 28.801 21.1943V3.69902C28.801 2.77101 28.4077 1.88101 27.7076 1.2248C27.0075 0.568601 26.0579 0.199951 25.0678 0.199951H6.39959ZM11.0662 7.63546C11.0662 7.98347 10.9187 8.31722 10.6561 8.56329C10.3936 8.80937 10.0375 8.94761 9.66619 8.94761C9.2949 8.94761 8.93881 8.80937 8.67626 8.56329C8.41372 8.31722 8.26622 7.98347 8.26622 7.63546C8.26622 7.28746 8.41372 6.95371 8.67626 6.70763C8.93881 6.46156 9.2949 6.32331 9.66619 6.32331C10.0375 6.32331 10.3936 6.46156 10.6561 6.70763C10.9187 6.95371 11.0662 7.28746 11.0662 7.63546ZM14.7994 7.19808H22.266C22.5135 7.19808 22.7509 7.29024 22.9259 7.45429C23.1009 7.61834 23.1993 7.84084 23.1993 8.07285C23.1993 8.30485 23.1009 8.52735 22.9259 8.6914C22.7509 8.85545 22.5135 8.94761 22.266 8.94761H14.7994C14.5519 8.94761 14.3145 8.85545 14.1395 8.6914C13.9644 8.52735 13.8661 8.30485 13.8661 8.07285C13.8661 7.84084 13.9644 7.61834 14.1395 7.45429C14.3145 7.29024 14.5519 7.19808 14.7994 7.19808ZM13.8661 13.3214C13.8661 13.0894 13.9644 12.8669 14.1395 12.7029C14.3145 12.5388 14.5519 12.4467 14.7994 12.4467H22.266C22.5135 12.4467 22.7509 12.5388 22.9259 12.7029C23.1009 12.8669 23.1993 13.0894 23.1993 13.3214C23.1993 13.5534 23.1009 13.7759 22.9259 13.94C22.7509 14.104 22.5135 14.1962 22.266 14.1962H14.7994C14.5519 14.1962 14.3145 14.104 14.1395 13.94C13.9644 13.7759 13.8661 13.5534 13.8661 13.3214ZM1.51835 15.7795C0.845565 17.0117 0.638053 18.4212 0.929657 19.7782C1.22126 21.1351 1.99477 22.3594 3.12405 23.2514C4.25333 24.1434 5.67174 24.6505 7.14797 24.69C8.6242 24.7294 10.0711 24.299 11.2528 23.4687L15.9997 27.944C16.1749 28.1081 16.4125 28.2001 16.6602 28.2C16.9079 28.1998 17.1453 28.1074 17.3203 27.9432C17.4953 27.7789 17.5935 27.5562 17.5934 27.3241C17.5932 27.0919 17.4946 26.8694 17.3194 26.7054L12.5595 22.2441C13.1015 21.5655 13.4873 20.7889 13.6925 19.9634C13.8976 19.1379 13.9177 18.2814 13.7514 17.4483C13.5851 16.6151 13.2361 15.8234 12.7264 15.1232C12.2168 14.423 11.5576 13.8296 10.7905 13.3806C10.0235 12.9316 9.16534 12.6367 8.27041 12.5146C7.37548 12.3926 6.46326 12.446 5.5915 12.6715C4.71974 12.897 3.90742 13.2897 3.20597 13.8247C2.50452 14.3597 1.92922 15.0253 1.51648 15.7795H1.51835ZM11.2136 16.1399C11.5608 16.6173 11.8035 17.1545 11.928 17.7203C12.0524 18.2861 12.0559 18.8695 11.9385 19.4366C11.821 20.0038 11.5848 20.5435 11.2436 21.0246C10.9023 21.5057 10.4628 21.9187 9.95027 22.2397C9.43778 22.5607 8.86252 22.7833 8.2577 22.8948C7.65289 23.0062 7.03051 23.0043 6.4265 22.889C5.8225 22.7738 5.24884 22.5475 4.73865 22.2233C4.22846 21.8991 3.79185 21.4834 3.45405 21.0001C2.77979 20.0356 2.5392 18.8605 2.78463 17.7306C3.03006 16.6006 3.74164 15.6073 4.76456 14.9666C5.78747 14.3259 7.03895 14.0897 8.24671 14.3094C9.45447 14.5292 10.5208 15.1871 11.2136 16.1399V16.1399Z" fill="#D4FFED"/>
</svg>
