<svg width="28" height="28" viewBox="0 0 28 28" fill="none" xmlns="http://www.w3.org/2000/svg">
<path d="M19.25 5.25C19.25 6.03203 19.0805 6.77578 18.7688 7.44844L21.6563 12.4359C20.3602 13.8195 18.6922 14.8477 16.8164 15.3672L14 10.5L10.2813 16.9258C11.457 17.2977 12.7039 17.5 14.0055 17.5C17.8719 17.5 21.3227 15.7117 23.5703 12.9063C24.1773 12.1516 25.2766 12.0313 26.0313 12.6328C26.7859 13.2344 26.9063 14.3391 26.3047 15.0938C23.4117 18.6922 18.9766 21 14 21C12.0641 21 10.2047 20.65 8.49297 20.0102L5.39766 25.3586C5.14063 25.8016 4.75781 26.1625 4.29844 26.3922L1.26875 27.907C0.995313 28.0438 0.672656 28.0273 0.415625 27.8688C0.158594 27.7102 0 27.4258 0 27.125V24.0953C0 23.6359 0.120312 23.182 0.355469 22.7773L3.63672 17.1063C2.93672 16.4938 2.28594 15.8211 1.70625 15.0938C1.09922 14.3391 1.225 13.2398 1.97969 12.6328C2.73438 12.0258 3.83359 12.1516 4.44063 12.9063C4.75234 13.2945 5.08594 13.6609 5.43594 14.0055L9.23125 7.44844C8.925 6.78125 8.75 6.0375 8.75 5.25C8.75 2.35156 11.1016 0 14 0C16.8984 0 19.25 2.35156 19.25 5.25ZM20.3984 21.5414C22.1813 20.8414 23.8164 19.857 25.2602 18.6484L27.65 22.7773C27.8797 23.1766 28.0055 23.6305 28.0055 24.0953V27.125C28.0055 27.4258 27.8469 27.7102 27.5898 27.8688C27.3328 28.0273 27.0102 28.0438 26.7367 27.907L23.707 26.3922C23.2477 26.1625 22.8648 25.8016 22.6078 25.3586L20.3984 21.5414ZM14 7C14.968 7 15.75 6.21797 15.75 5.25C15.75 4.28203 14.968 3.5 14 3.5C13.032 3.5 12.25 4.28203 12.25 5.25C12.25 6.21797 13.032 7 14 7Z" fill="#D4FFE0"/>
</svg>
