<svg width="32" height="26" viewBox="0 0 32 26" fill="none" xmlns="http://www.w3.org/2000/svg">
<path d="M4.29464 8.9375L8.58929 16.25H0L4.29464 8.9375ZM0.858929 0H7.73036V6.5H0.858929V0ZM4.29464 26C5.20585 26 6.07974 25.6576 6.72406 25.0481C7.36838 24.4386 7.73036 23.612 7.73036 22.75C7.73036 21.888 7.36838 21.0614 6.72406 20.4519C6.07974 19.8424 5.20585 19.5 4.29464 19.5C3.38344 19.5 2.50955 19.8424 1.86523 20.4519C1.2209 21.0614 0.858929 21.888 0.858929 22.75C0.858929 23.612 1.2209 24.4386 1.86523 25.0481C2.50955 25.6576 3.38344 26 4.29464 26ZM11.1661 1.625V4.875H31.7804V1.625H11.1661ZM11.1661 24.375H31.7804V21.125H11.1661V24.375ZM11.1661 14.625H31.7804V11.375H11.1661V14.625Z" fill="#D4FFE0"/>
</svg>
