<svg width="28" height="26" viewBox="0 0 28 26" fill="none" xmlns="http://www.w3.org/2000/svg">
<path fill-rule="evenodd" clip-rule="evenodd" d="M0 11.5555V0H12.4444V11.5555H0ZM3.11111 2.88888V8.66664H9.33333V2.88888H3.11111ZM15.5556 14.4444H20.2222V17.3333H23.3333V14.4444H27.9999V18.7777H23.3333V20.2221H24.8888V21.6666H27.9999V25.9999H24.8888V23.111H21.7777V25.9999H15.5555V20.2221H18.6666V23.111H20.2221V17.3333H15.5556V14.4444ZM4.66669 4.3333H7.7778V7.22218H4.66669V4.3333ZM20.2221 4.3333H23.3333V7.22218H20.2221V4.3333ZM15.5556 0V11.5555H28V0H15.5556ZM24.8889 2.88888V8.66664H18.6667V2.88888H24.8889ZM4.66667 18.7777H7.77778V21.6666H4.66667V18.7777ZM0 14.4445V26.0001H12.4444V14.4445H0ZM3.11111 23.1112V17.3334H9.33333V23.1112H3.11111Z" fill="#D4FFE0"/>
</svg>
