<svg width="28" height="28" viewBox="0 0 28 28" fill="none" xmlns="http://www.w3.org/2000/svg">
<g clip-path="url(#clip0_28_149)">
<path d="M13.8988 -0.0333752C13.8532 -0.025151 13.8083 -0.0139997 13.7642 9.38401e-06C13.521 0.0545035 13.3043 0.191619 13.1509 0.387991C12.9976 0.584363 12.917 0.82784 12.9231 1.07693V2.15386H3.23077C2.37392 2.15386 1.55216 2.49424 0.94627 3.10013C0.340384 3.70601 0 4.52777 0 5.38462L0 19.3846C0 21.168 1.44738 22.6154 3.23077 22.6154H12.9231V23.0192L7.06677 25.9474C6.808 26.0724 6.60947 26.295 6.51485 26.5663C6.42023 26.8377 6.43727 27.1355 6.56223 27.3942C6.68719 27.653 6.90982 27.8515 7.18116 27.9462C7.4525 28.0408 7.75031 28.0237 8.00908 27.8988L12.9231 25.4423V25.8462C12.9231 26.1318 13.0365 26.4057 13.2385 26.6077C13.4405 26.8096 13.7144 26.9231 14 26.9231C14.2856 26.9231 14.5595 26.8096 14.7615 26.6077C14.9635 26.4057 15.0769 26.1318 15.0769 25.8462V25.4423L19.9909 27.8988C20.2497 28.0237 20.5475 28.0408 20.8188 27.9462C21.0902 27.8515 21.3128 27.653 21.4378 27.3942C21.5627 27.1355 21.5798 26.8377 21.4852 26.5663C21.3905 26.295 21.192 26.0724 20.9332 25.9474L15.0769 23.0192V22.6154H24.7692C26.5526 22.6154 28 21.168 28 19.3846V5.38462C28 4.52777 27.6596 3.70601 27.0537 3.10013C26.4478 2.49424 25.6261 2.15386 24.7692 2.15386H15.0769V1.07693C15.0824 0.923792 15.0551 0.771254 14.9968 0.62951C14.9386 0.487766 14.8508 0.36008 14.7393 0.254984C14.6278 0.149887 14.4951 0.0698 14.3502 0.0200729C14.2052 -0.0296542 14.0513 -0.0478761 13.8988 -0.0333752ZM2.15385 5.38462H25.8462V19.3846H2.15385V5.38462ZM22.4808 6.46155C22.2395 6.48748 22.0141 6.59411 21.8411 6.76416L18.3077 10.2986L15.8512 7.84001C15.7336 7.7193 15.5893 7.62789 15.4298 7.57313C15.2704 7.51837 15.1004 7.5018 14.9334 7.52474C14.7664 7.54768 14.6072 7.6095 14.4684 7.70522C14.3297 7.80094 14.2153 7.92789 14.1346 8.07586L10.9372 13.6629L9.62446 10.3643C9.56071 10.194 9.45487 10.0426 9.31681 9.92424C9.17875 9.80587 9.01296 9.7244 8.83491 9.68741C8.65685 9.65042 8.47233 9.65913 8.29855 9.71271C8.12477 9.7663 7.96738 9.86302 7.84108 9.99385L4.61031 13.2246C4.50848 13.3264 4.4277 13.4472 4.37256 13.5802C4.31743 13.7131 4.28903 13.8557 4.28898 13.9996C4.28893 14.1436 4.31723 14.2861 4.37227 14.4191C4.42731 14.5522 4.50802 14.673 4.60977 14.7749C4.71152 14.8767 4.83234 14.9575 4.96531 15.0126C5.09829 15.0677 5.24082 15.0961 5.38477 15.0962C5.52873 15.0962 5.67128 15.0679 5.80429 15.0129C5.93731 14.9578 6.05818 14.8771 6.16 14.7754L8.21262 12.7228L9.76123 16.5588C9.83432 16.7512 9.961 16.9186 10.1263 17.0412C10.2916 17.1638 10.4885 17.2365 10.6938 17.2507C10.8991 17.2648 11.1042 17.2199 11.2848 17.1211C11.4653 17.0224 11.6138 16.8739 11.7126 16.6934L15.3138 10.3999L17.5345 12.6215C17.6349 12.7254 17.7552 12.8081 17.8882 12.8645C18.0213 12.9209 18.1643 12.95 18.3088 12.95C18.4533 12.95 18.5963 12.9209 18.7293 12.8645C18.8623 12.8081 18.9826 12.7254 19.0831 12.6215L23.3908 8.31386C23.5609 8.15636 23.6756 7.94818 23.718 7.72025C23.7603 7.49231 23.728 7.25681 23.6257 7.04873C23.5235 6.84066 23.3569 6.67112 23.1506 6.56533C22.9443 6.45954 22.7094 6.42314 22.4808 6.46155Z" fill="#D4FFE0"/>
</g>
<defs>
<clipPath id="clip0_28_149">
<rect width="28" height="28" fill="white"/>
</clipPath>
</defs>
</svg>
