<svg width="28" height="28" viewBox="0 0 28 28" fill="none" xmlns="http://www.w3.org/2000/svg">
<path d="M14 28C12.075 28 10.3104 27.5722 8.70625 26.7167C7.10208 25.8611 5.83333 24.7333 4.9 23.3333H0V20.2222H3.675C3.5875 19.6259 3.53675 19.1136 3.52275 18.6853C3.50758 18.2581 3.5 17.7333 3.5 17.1111H0V14H3.5C3.5 13.3 3.50758 12.7229 3.52275 12.2687C3.53675 11.8155 3.5875 11.3556 3.675 10.8889H0V7.77778H4.9C5.30833 7.15556 5.768 6.59141 6.279 6.08533C6.78883 5.5803 7.37917 5.13333 8.05 4.74444L5.25 2.17778L7.7 0L11.4625 3.34444C12.1333 3.13704 12.9646 3.03333 13.9563 3.03333C14.9479 3.03333 15.7792 3.13704 16.45 3.34444L20.3 0L22.75 2.17778L19.8625 4.74444C20.5333 5.13333 21.1388 5.5803 21.679 6.08533C22.218 6.59141 22.6917 7.15556 23.1 7.77778H28V10.8889H24.325C24.4125 11.4852 24.4638 11.9778 24.479 12.3667C24.493 12.7556 24.5 13.3 24.5 14H28V17.1111H24.5C24.5 17.7333 24.493 18.2581 24.479 18.6853C24.4638 19.1136 24.4125 19.6259 24.325 20.2222H28V23.3333H23.1C22.1667 24.7333 20.8979 25.8611 19.2937 26.7167C17.6896 27.5722 15.925 28 14 28ZM10.5 20.2222H17.5V17.1111H10.5V20.2222ZM10.5 14H17.5V10.8889H10.5V14Z" fill="#D4FFED"/>
</svg>
