<?xml version="1.0" encoding="UTF-8" standalone="no"?>
<svg version="1.1" xmlns="http://www.w3.org/2000/svg" viewBox="0 0 768 768" width="768" height="768" fill="#d4ffe0">
<path stroke="none" fill-rule="evenodd" d="M506.42,767.98C490.97,767.99 478.14,767.81 477.91,767.58C477.68,767.34 462.19,763.26 443.49,758.50C424.80,753.75 390.15,744.96 366.50,738.98C342.85,733.00 309.10,724.44 291.50,719.98C273.90,715.51 253.88,710.27 247.00,708.35C240.12,706.42 227.30,703.05 218.50,700.85C209.70,698.66 196.15,695.11 188.38,692.97C180.62,690.82 171.73,688.12 168.63,686.96C165.54,685.80 163.00,684.28 163.00,683.58C163.00,682.88 163.80,681.58 164.79,680.69C165.77,679.80 168.36,678.33 170.54,677.43C172.72,676.52 174.83,675.26 175.23,674.64C175.64,674.01 175.98,669.79 175.98,665.25C175.99,660.71 176.25,657.00 176.55,657.00C176.86,657.00 187.32,659.44 199.80,662.41C212.29,665.39 230.60,669.65 240.50,671.89C250.40,674.12 265.70,677.56 274.50,679.53C283.30,681.49 303.32,685.97 319.00,689.48C334.68,692.99 360.55,698.84 376.50,702.47C392.45,706.10 416.07,711.56 429.00,714.61C441.93,717.66 466.15,723.54 482.82,727.67C510.42,734.51 513.43,735.07 516.32,733.90C518.07,733.20 522.88,730.61 527.00,728.15C531.12,725.68 549.83,713.46 568.56,700.99C587.30,688.51 605.86,676.39 609.81,674.05C613.78,671.68 617.66,670.04 618.49,670.36C619.74,670.84 620.00,673.40 620.00,685.06C620.00,699.18 620.00,699.18 617.25,701.56C615.74,702.87 596.50,718.34 574.50,735.95C534.50,767.95 534.50,767.95 506.42,767.98zM509.30,716.82C506.66,716.72 501.15,716.38 497.06,716.07C489.62,715.50 489.62,715.50 489.90,397.00C490.04,221.82 489.84,77.21 489.45,75.64C488.81,73.09 488.39,72.84 485.61,73.32C483.90,73.62 471.25,76.34 457.50,79.37C443.75,82.40 422.38,87.14 410.00,89.92C397.62,92.70 370.40,98.78 349.50,103.44C328.60,108.11 300.02,114.60 286.00,117.87C271.98,121.14 244.97,127.28 226.00,131.50C207.03,135.73 190.20,139.93 188.60,140.84C187.01,141.75 184.76,143.77 183.60,145.32C181.70,147.88 181.48,149.64 181.27,164.15C181.05,179.25 180.91,180.25 178.85,181.92C177.47,183.04 176.90,184.29 177.30,185.34C177.70,186.38 179.07,187.00 180.99,187.00C183.27,187.00 184.33,187.63 185.18,189.50C186.10,191.51 186.01,192.33 184.75,193.75C183.70,194.92 183.06,197.99 182.84,203.00C182.50,210.50 182.50,210.50 186.00,210.59C187.93,210.64 189.85,210.75 190.29,210.84C190.72,210.93 190.63,211.82 190.09,212.82C189.56,213.83 187.30,215.19 185.07,215.86C182.01,216.78 180.86,217.72 180.36,219.71C179.99,221.16 180.03,296.06 180.43,386.17C181.16,549.99 181.16,549.99 178.72,550.92C177.37,551.43 176.03,552.76 175.74,553.88C175.45,554.99 175.77,556.67 176.45,557.60C177.43,558.94 178.70,559.18 182.47,558.76C185.10,558.46 187.60,557.65 188.03,556.95C188.46,556.25 188.58,555.08 188.30,554.34C188.02,553.60 187.16,553.00 186.39,553.00C185.63,553.00 185.00,552.52 185.00,551.93C185.00,551.35 186.24,551.01 187.75,551.18C189.94,551.44 190.57,552.08 190.83,554.35C191.03,556.15 190.43,558.00 189.20,559.35C188.13,560.53 186.75,562.48 186.13,563.67C185.52,564.87 184.51,568.24 183.89,571.17C183.27,574.10 182.32,577.06 181.77,577.73C181.06,578.63 181.52,579.25 183.46,579.98C184.93,580.54 186.51,581.00 186.98,581.00C187.45,581.00 188.06,580.44 188.34,579.75C188.62,579.06 188.87,579.85 188.91,581.50C188.94,583.15 188.56,585.14 188.07,585.92C187.57,586.70 185.67,587.83 183.83,588.42C180.50,589.50 180.50,589.50 180.22,602.52C179.96,615.03 180.05,615.74 182.72,621.02C184.94,625.40 186.40,626.93 190.00,628.67C192.47,629.86 199.22,631.81 205.00,633.02C210.78,634.22 223.70,637.18 233.72,639.60C243.74,642.03 258.59,645.56 266.72,647.45C274.85,649.34 293.88,653.86 309.00,657.50C324.12,661.14 349.83,667.21 366.11,670.98C382.40,674.75 398.37,678.89 401.60,680.17C404.83,681.45 407.35,682.95 407.20,683.50C407.05,684.05 404.79,684.45 402.17,684.38C399.56,684.31 378.76,680.57 355.96,676.05C333.16,671.54 298.98,664.70 280.00,660.84C261.02,656.98 228.25,650.03 207.17,645.39C186.09,640.76 167.30,636.32 165.42,635.53C162.00,634.10 162.00,634.10 162.00,388.27C162.00,168.72 162.16,142.21 163.54,140.25C164.40,139.02 167.36,137.38 170.26,136.52C173.11,135.67 187.15,132.70 201.47,129.91C215.79,127.13 236.95,122.67 248.50,120.02C260.05,117.36 273.32,114.43 278.00,113.51C282.68,112.58 293.02,110.25 301.00,108.33C308.98,106.40 327.65,102.20 342.50,98.99C357.35,95.79 381.88,90.41 397.00,87.05C412.12,83.69 433.50,78.90 444.50,76.41C455.50,73.91 470.35,70.50 477.50,68.82C485.20,67.01 493.15,65.78 497.00,65.80C500.57,65.81 506.88,66.72 511.00,67.81C515.12,68.90 526.81,73.49 536.97,78.01C547.14,82.53 565.14,90.73 576.97,96.24C588.81,101.74 603.34,108.67 609.25,111.63C615.16,114.59 620.00,117.45 620.00,117.99C620.00,118.53 615.84,117.45 610.75,115.59C605.66,113.74 599.25,111.32 596.50,110.21C593.75,109.11 580.59,103.43 567.25,97.60C553.92,91.77 542.16,87.00 541.12,87.00C539.31,87.00 539.21,88.94 538.48,136.75C538.06,164.11 538.00,268.40 538.35,368.50C538.70,468.60 538.99,582.11 538.99,620.75C539.00,683.44 539.17,691.00 540.55,691.00C541.39,691.00 545.33,688.82 549.30,686.15C553.26,683.49 563.70,676.82 572.50,671.34C581.30,665.86 593.00,658.85 598.51,655.77C604.01,652.68 609.79,649.84 611.36,649.45C613.75,648.85 614.14,649.02 613.85,650.52C613.66,651.51 608.33,655.87 602.00,660.23C595.67,664.58 581.95,673.58 571.50,680.24C561.05,686.90 545.13,697.23 536.13,703.21C527.13,709.18 518.49,714.73 516.93,715.54C515.37,716.34 511.94,716.92 509.30,716.82zM452.05,679.92C448.45,679.87 441.79,678.99 437.26,677.97C432.73,676.95 428.28,675.69 427.37,675.19C426.14,674.50 427.71,673.83 433.61,672.57C437.95,671.63 443.52,670.22 446.00,669.42C448.48,668.62 451.13,667.57 451.90,667.09C452.66,666.60 453.03,665.51 452.70,664.66C452.38,663.82 450.40,662.64 448.31,662.05C446.21,661.45 438.43,659.87 431.00,658.54C423.57,657.20 411.43,655.15 404.00,653.98C396.57,652.81 382.85,650.29 373.50,648.37C364.15,646.46 348.62,643.32 339.00,641.40C329.38,639.48 305.52,634.56 286.00,630.48C266.48,626.39 242.85,621.66 233.50,619.96C224.15,618.26 213.05,615.95 208.82,614.84C204.47,613.70 200.36,611.95 199.32,610.81C197.57,608.87 197.49,600.05 197.22,387.65C197.07,266.02 197.19,165.50 197.49,164.27C197.79,163.04 199.44,160.43 201.17,158.46C202.90,156.49 205.93,154.06 207.91,153.05C209.88,152.05 215.10,150.50 219.50,149.62C223.90,148.73 235.82,146.64 246.00,144.97C256.18,143.30 273.61,140.15 284.74,137.96C295.87,135.77 312.29,132.83 321.24,131.43C330.18,130.03 346.05,127.32 356.50,125.41C366.95,123.49 386.52,119.67 400.00,116.91C413.48,114.16 430.35,110.80 437.50,109.46C444.65,108.12 451.90,107.01 453.60,107.01C455.31,107.00 458.21,108.01 460.05,109.25C461.89,110.49 464.32,113.08 465.45,115.00C467.50,118.50 467.50,118.50 467.32,393.68C467.18,604.22 466.86,669.41 465.95,671.18C465.30,672.46 463.38,674.96 461.68,676.75C458.80,679.80 458.20,679.99 452.05,679.92zM404.80,638.89C407.16,638.95 410.54,638.27 412.30,637.38C414.06,636.49 416.29,635.07 417.25,634.22C418.21,633.38 419.00,632.31 419.00,631.85C419.00,631.38 418.32,631.00 417.50,631.00C416.67,631.00 414.31,631.90 412.26,633.00C410.21,634.10 407.62,635.00 406.51,634.99C405.41,634.99 400.07,634.09 394.65,632.99C389.24,631.90 383.95,631.00 382.90,631.00C381.86,631.00 381.00,631.66 381.00,632.46C381.00,633.31 382.58,634.34 384.75,634.92C386.81,635.47 391.20,636.56 394.50,637.35C397.80,638.13 402.43,638.83 404.80,638.89zM410.95,622.77C412.23,622.53 412.55,620.39 412.78,610.74C412.96,603.16 412.70,599.00 412.03,599.00C411.46,599.00 411.00,600.25 411.00,601.78C411.00,603.31 410.32,605.53 409.49,606.71C408.53,608.08 408.35,609.10 408.99,609.49C409.55,609.84 410.00,612.12 410.00,614.56C410.00,618.74 409.84,619.00 407.25,619.01C405.74,619.01 400.90,618.52 396.50,617.92C392.10,617.32 387.49,616.64 386.26,616.40C384.06,615.98 384.03,615.77 384.65,605.65C385.05,599.20 384.90,594.64 384.25,593.48C383.47,592.08 383.05,594.26 382.53,602.57C382.15,608.58 381.64,614.25 381.38,615.17C381.13,616.08 381.45,617.16 382.10,617.56C382.75,617.96 388.91,619.11 395.78,620.12C402.65,621.12 408.53,622.20 408.84,622.51C409.15,622.82 410.10,622.94 410.95,622.77zM243.46,611.00C244.29,611.00 245.17,609.99 245.42,608.75C245.67,607.51 246.17,590.75 246.54,571.50C246.90,552.25 247.52,534.02 247.91,531.00C248.60,525.70 248.65,525.63 249.27,529.00C249.62,530.92 250.19,535.08 250.53,538.23C250.86,541.39 251.49,544.19 251.93,544.46C252.36,544.72 253.00,541.92 253.35,538.22C253.70,534.52 253.99,447.96 253.99,345.86C254.00,177.49 253.85,160.16 252.42,159.61C251.55,159.27 247.69,159.00 243.84,159.00C236.85,159.00 236.85,159.00 230.97,164.61C225.96,169.39 224.95,170.97 224.07,175.36C223.40,178.74 222.95,250.40 222.77,385.00C222.53,565.28 222.68,589.81 224.00,592.13C224.82,593.58 227.10,596.51 229.06,598.63C231.03,600.76 234.73,604.41 237.29,606.75C239.86,609.09 242.63,611.00 243.46,611.00zM345.21,594.93C346.16,594.97 347.35,594.21 347.87,593.25C348.38,592.28 348.95,575.59 349.13,556.15C349.43,522.64 349.35,520.73 347.59,519.44C346.57,518.69 343.88,517.85 341.61,517.56C339.35,517.27 326.93,515.89 314.00,514.48C301.07,513.08 286.38,511.65 281.35,511.32C276.31,510.99 271.40,511.02 270.43,511.39C269.37,511.79 269.03,512.42 269.58,512.96C270.09,513.45 277.15,515.01 285.27,516.42C293.40,517.84 301.73,519.73 303.77,520.63C307.50,522.26 307.50,522.26 303.00,523.49C299.04,524.57 298.80,524.78 301.00,525.27C302.38,525.57 308.79,526.55 315.27,527.45C321.74,528.34 327.70,529.33 328.52,529.64C329.77,530.13 330.00,533.81 329.98,553.36C329.98,566.09 329.56,577.15 329.06,577.94C328.28,579.17 325.36,578.99 308.33,576.67C297.42,575.18 287.19,573.97 285.58,573.98C283.98,573.99 282.94,574.28 283.28,574.61C283.61,574.95 290.07,576.52 297.63,578.10C305.19,579.68 311.77,581.37 312.26,581.86C312.78,582.38 311.64,583.03 309.53,583.43C307.54,583.80 303.79,583.85 301.20,583.54C297.66,583.11 297.05,583.21 298.72,583.94C299.95,584.48 308.92,586.56 318.66,588.58C328.41,590.59 337.98,592.83 339.94,593.55C341.90,594.27 344.27,594.89 345.21,594.93zM454.75,589.85C456.36,589.96 457.00,589.45 457.00,588.07C457.00,587.00 456.21,585.90 455.25,585.61C454.29,585.32 446.75,584.15 438.50,583.01C430.25,581.87 416.75,579.86 408.50,578.54C400.25,577.23 391.02,575.86 388.00,575.51C383.99,575.04 381.98,575.25 380.60,576.28C379.46,577.13 379.00,578.19 379.46,578.94C379.89,579.63 381.17,579.93 382.36,579.61C383.54,579.30 398.45,581.27 415.50,583.98C432.55,586.69 447.85,589.08 449.50,589.30C451.15,589.52 453.51,589.77 454.75,589.85zM450.64,564.90C454.21,564.97 455.95,564.57 456.32,563.60C456.62,562.83 456.33,561.49 455.68,560.62C454.82,559.47 448.87,558.27 433.50,556.13C421.95,554.52 407.10,552.48 400.50,551.60C393.90,550.72 386.19,550.00 383.37,550.00C379.97,550.00 377.81,550.52 376.96,551.54C376.13,552.55 376.03,553.43 376.66,554.06C377.20,554.60 381.43,555.69 386.07,556.49C390.71,557.29 401.70,558.89 410.50,560.04C419.30,561.20 430.77,562.75 436.00,563.47C441.23,564.20 447.81,564.84 450.64,564.90zM313.31,560.97C316.18,560.99 317.88,560.61 317.52,560.03C317.19,559.49 315.08,558.56 312.85,557.96C310.61,557.36 307.03,557.16 304.89,557.52C302.76,557.88 300.75,558.60 300.42,559.13C300.07,559.69 300.85,559.82 302.34,559.45C303.73,559.10 305.68,559.30 306.68,559.88C307.68,560.46 310.66,560.95 313.31,560.97zM450.69,550.85C453.00,550.93 455.21,550.47 455.61,549.82C456.04,549.13 455.44,548.04 454.17,547.20C452.68,546.21 452.00,544.73 452.00,542.49C452.00,540.42 451.41,538.99 450.42,538.61C449.55,538.27 446.86,538.00 444.44,538.00C440.54,538.00 439.96,538.30 439.39,540.58C438.77,543.05 438.54,543.12 433.62,542.46C430.81,542.08 428.19,541.59 427.82,541.37C427.44,541.15 427.38,539.46 427.67,537.63C428.14,534.74 427.89,534.20 425.86,533.66C424.56,533.31 422.54,533.02 421.36,533.01C420.18,533.01 418.94,533.71 418.61,534.57C418.28,535.44 418.45,536.98 419.00,537.99C419.83,539.55 419.54,539.94 417.12,540.47C415.54,540.82 411.24,540.40 407.57,539.55C403.89,538.70 397.11,538.00 392.50,538.00C384.12,538.00 384.12,538.00 383.46,533.59C383.10,531.17 383.12,527.74 383.50,525.98C384.18,522.93 384.38,522.80 387.85,523.39C389.86,523.74 401.62,525.34 414.00,526.96C426.38,528.58 439.65,530.37 443.50,530.93C447.35,531.50 451.95,531.97 453.73,531.98C456.39,532.00 457.08,531.54 457.62,529.39C458.03,527.74 457.81,526.50 457.00,526.00C456.30,525.57 451.40,524.69 446.11,524.05C440.83,523.41 428.85,521.82 419.50,520.52C410.15,519.22 397.63,517.58 391.67,516.88C384.02,515.98 380.36,515.91 379.17,516.66C377.82,517.51 377.44,519.68 377.21,528.11C377.05,533.82 377.17,539.51 377.48,540.75C377.98,542.78 378.64,543.00 384.19,543.00C387.57,543.00 401.62,544.56 415.42,546.46C429.21,548.37 441.85,550.10 443.50,550.31C445.15,550.53 448.39,550.77 450.69,550.85zM284.39,549.08C285.55,548.67 287.24,546.89 288.14,545.12C289.05,543.36 289.56,541.01 289.27,539.92C288.98,538.82 287.48,537.26 285.92,536.46C284.37,535.66 282.28,535.00 281.27,535.00C280.27,535.00 278.44,535.70 277.22,536.56C276.00,537.41 275.01,539.10 275.01,540.31C275.02,541.51 275.59,543.62 276.28,544.98C276.97,546.34 278.61,547.99 279.91,548.64C281.26,549.31 283.20,549.50 284.39,549.08zM311.68,549.96C313.43,549.98 315.56,549.29 316.43,548.43C317.29,547.56 317.99,546.55 317.98,546.18C317.98,545.81 317.64,545.03 317.23,544.45C316.83,543.88 313.84,542.68 310.60,541.79C307.35,540.91 304.09,540.41 303.35,540.70C302.61,540.98 302.00,542.54 302.00,544.16C302.00,546.52 302.64,547.37 305.25,548.51C307.04,549.29 309.93,549.94 311.68,549.96zM404.50,535.71C405.91,535.56 406.50,534.76 406.50,533.00C406.50,530.75 406.10,530.50 402.51,530.50C399.51,530.50 398.44,530.93 398.19,532.25C397.98,533.35 398.73,534.37 400.18,534.96C401.45,535.48 403.40,535.82 404.50,535.71zM448.13,515.92C449.57,515.96 451.23,515.42 451.82,514.72C452.46,513.95 452.54,512.87 452.01,512.02C451.45,511.11 451.66,510.24 452.63,509.53C453.44,508.94 453.83,507.73 453.50,506.86C453.16,505.99 451.74,504.75 450.33,504.10C448.92,503.46 446.96,503.19 445.98,503.51C444.99,503.82 443.91,504.79 443.58,505.66C443.24,506.54 443.45,507.83 444.03,508.54C444.77,509.43 444.78,510.02 444.05,510.47C443.47,510.83 443.00,511.95 443.00,512.98C443.00,514.00 443.56,515.06 444.25,515.34C444.94,515.62 446.68,515.88 448.13,515.92zM427.17,511.00C428.18,511.00 429.00,510.54 429.00,509.97C429.00,509.40 428.31,508.67 427.46,508.35C426.26,507.89 426.52,507.44 428.59,506.37C430.63,505.31 431.60,505.25 432.66,506.13C433.42,506.77 434.26,507.07 434.53,506.81C434.79,506.54 434.72,503.59 434.37,500.25C433.87,495.47 433.33,494.06 431.87,493.68C430.84,493.41 429.76,493.58 429.46,494.06C429.16,494.55 429.64,496.35 430.53,498.06C431.42,499.78 431.88,501.88 431.55,502.73C431.02,504.11 430.76,504.10 429.15,502.64C428.16,501.74 426.46,501.00 425.37,501.00C424.29,501.00 422.91,501.49 422.32,502.08C421.72,502.68 421.46,504.03 421.73,505.08C422.01,506.14 422.90,507.00 423.72,507.00C424.59,507.00 424.99,507.59 424.68,508.40C424.38,509.17 424.41,510.07 424.74,510.40C425.06,510.73 426.16,511.00 427.17,511.00zM347.93,510.00C348.40,510.00 349.06,509.29 349.39,508.42C349.73,507.55 350.00,499.56 349.99,490.67C349.99,481.78 349.70,471.46 349.35,467.75C349.00,464.04 348.40,461.00 348.02,461.00C347.63,461.00 346.75,462.24 346.06,463.75C345.16,465.71 344.84,472.21 344.95,486.41C345.03,497.36 345.54,507.15 346.09,508.16C346.63,509.17 347.46,510.00 347.93,510.00zM405.25,507.76C405.94,507.53 406.64,506.37 406.82,505.17C407.05,503.63 407.84,503.00 409.57,503.00C410.91,503.00 412.00,502.51 412.00,501.91C412.00,501.30 411.05,500.56 409.89,500.26C407.94,499.75 407.83,499.25 408.44,493.85C408.99,488.98 408.84,488.00 407.57,488.00C406.73,488.00 405.33,489.10 404.45,490.44C403.52,491.85 402.25,492.65 401.42,492.33C400.37,491.93 400.00,492.63 400.00,495.00C400.00,497.35 400.38,498.07 401.40,497.68C402.26,497.35 403.03,497.98 403.39,499.32C403.71,500.52 403.98,503.00 403.99,504.83C404.00,507.05 404.42,508.03 405.25,507.76zM389.14,503.96C391.11,503.94 393.59,503.01 395.12,501.71C396.67,500.41 398.02,497.98 398.41,495.80C398.96,492.75 398.73,491.93 397.10,491.05C396.02,490.47 392.90,490.00 390.17,490.00C386.69,490.00 385.04,490.45 384.64,491.50C384.32,492.32 384.34,493.72 384.67,494.59C385.07,495.63 386.10,496.02 387.64,495.73C389.58,495.36 390.00,495.70 390.00,497.64C390.00,499.07 389.41,500.00 388.50,500.00C387.68,500.00 387.00,500.19 387.00,500.42C387.00,500.65 386.73,501.55 386.39,502.42C385.91,503.67 386.49,503.99 389.14,503.96zM278.11,498.99C278.49,497.62 278.85,487.47 278.90,476.44C278.97,461.69 279.34,455.91 280.30,454.60C281.53,452.92 282.79,452.90 302.80,454.11C316.06,454.91 324.04,455.78 324.10,456.44C324.16,457.02 324.12,467.29 324.01,479.25C323.88,494.39 324.15,501.00 324.91,501.00C325.66,501.00 326.00,494.25 326.00,479.15C326.00,459.61 326.18,457.15 327.75,455.75C328.71,454.89 330.59,454.03 331.92,453.84C333.25,453.65 334.53,452.94 334.75,452.26C334.98,451.57 334.11,450.62 332.83,450.13C331.55,449.64 319.35,448.47 305.72,447.52C292.10,446.57 279.89,446.06 278.59,446.39C276.58,446.89 276.13,447.81 275.53,452.64C275.14,455.76 275.14,467.57 275.53,478.90C275.92,490.23 276.51,499.95 276.83,500.49C277.15,501.03 277.73,500.36 278.11,498.99zM312.35,495.00C313.67,495.00 315.33,494.31 316.02,493.47C317.01,492.29 317.03,491.37 316.14,489.40C315.24,487.44 314.37,486.94 312.24,487.18C310.25,487.41 309.41,488.14 309.17,489.82C308.99,491.10 309.09,492.79 309.39,493.57C309.69,494.36 311.02,495.00 312.35,495.00zM301.18,493.92C301.55,493.96 302.56,493.29 303.43,492.43C304.29,491.56 305.00,490.45 305.00,489.95C305.00,489.45 303.89,488.32 302.54,487.44C301.19,486.55 299.62,486.12 299.04,486.47C298.47,486.83 298.00,488.40 298.00,489.98C298.00,491.55 298.56,493.06 299.25,493.34C299.94,493.62 300.81,493.88 301.18,493.92zM290.13,491.93C291.22,491.35 292.36,490.22 292.67,489.42C292.97,488.63 292.67,487.31 291.99,486.49C291.31,485.67 289.73,485.00 288.48,485.00C287.24,485.00 285.94,485.71 285.61,486.58C285.27,487.45 285.00,488.54 285.00,489.01C285.00,489.48 285.71,490.56 286.57,491.43C287.77,492.63 288.60,492.75 290.13,491.93zM335.50,491.00C336.29,491.00 337.40,490.13 337.96,489.07C338.53,488.00 339.00,485.72 339.00,484.00C339.00,482.28 338.53,480.00 337.96,478.93C337.37,477.83 335.88,477.00 334.46,477.00C332.66,477.00 332.00,477.54 332.00,479.02C332.00,480.26 332.97,481.42 334.50,482.00C335.88,482.52 337.00,483.41 337.00,483.98C337.00,484.54 336.42,485.00 335.70,485.00C334.98,485.00 333.88,485.52 333.25,486.15C332.45,486.95 332.40,487.88 333.08,489.15C333.63,490.17 334.71,491.00 335.50,491.00zM313.50,478.00C314.11,478.00 315.14,477.46 315.80,476.80C316.46,476.14 317.00,474.58 317.00,473.34C317.00,472.09 316.20,470.64 315.22,470.12C314.10,469.52 312.82,469.52 311.72,470.13C310.78,470.67 310.00,472.11 310.00,473.35C310.00,474.59 310.54,476.14 311.20,476.80C311.86,477.46 312.89,478.00 313.50,478.00zM454.00,477.59C458.50,477.50 458.50,477.50 458.50,473.54C458.50,469.59 458.50,469.59 450.71,468.38C446.42,467.72 442.36,466.71 441.68,466.15C441.00,465.59 436.63,464.84 431.97,464.49C427.31,464.15 414.95,463.71 404.50,463.52C387.27,463.22 385.06,463.37 380.82,465.18C378.25,466.28 375.88,467.88 375.55,468.74C375.22,469.59 375.22,470.55 375.54,470.87C375.86,471.19 382.06,471.98 389.31,472.63C396.56,473.28 410.60,474.53 420.50,475.40C430.40,476.27 440.98,477.14 444.00,477.33C447.02,477.52 451.52,477.64 454.00,477.59zM292.75,476.19C293.44,475.97 294.00,474.75 294.00,473.47C294.00,472.20 293.73,470.45 293.39,469.58C293.03,468.64 291.61,468.00 289.86,468.00C288.18,468.00 286.69,468.64 286.36,469.50C286.04,470.33 286.06,472.10 286.39,473.43C286.77,474.92 287.87,476.00 289.25,476.23C290.49,476.43 292.06,476.41 292.75,476.19zM303.20,477.00C304.22,477.00 305.32,476.32 305.64,475.50C305.96,474.67 305.93,472.87 305.59,471.50C305.13,469.67 304.29,469.00 302.48,469.00C300.34,469.00 300.00,469.45 300.00,472.33C300.00,474.17 300.30,475.97 300.67,476.33C301.03,476.70 302.17,477.00 303.20,477.00zM337.95,474.47C338.41,473.35 339.50,471.83 340.39,471.09C341.27,470.36 342.00,468.97 342.00,468.00C342.00,467.03 341.38,465.73 340.63,465.11C339.88,464.48 337.51,463.86 335.38,463.74C331.69,463.51 331.48,463.66 331.19,466.69C330.93,469.39 331.36,470.13 333.94,471.47C335.62,472.34 337.03,473.83 337.06,474.78C337.12,476.19 337.28,476.13 337.95,474.47zM452.17,463.00C453.22,463.00 454.15,462.07 454.42,460.75C454.68,459.51 455.16,454.15 455.50,448.84C455.94,441.80 455.78,438.98 454.90,438.44C454.23,438.02 451.66,437.76 449.18,437.86C446.70,437.95 444.07,438.53 443.34,439.14C442.60,439.75 442.00,440.64 442.00,441.12C442.00,441.61 443.24,442.01 444.75,442.02C446.26,442.02 448.03,442.37 448.67,442.78C449.31,443.18 450.12,444.64 450.47,446.02C450.91,447.79 450.49,449.17 449.01,450.76C447.86,451.99 446.49,453.00 445.96,453.00C445.43,453.00 445.00,453.45 445.00,454.00C445.00,454.55 445.90,455.00 447.00,455.00C448.10,455.00 449.00,455.58 449.00,456.30C449.00,457.02 448.44,458.17 447.75,458.87C446.75,459.88 446.89,460.42 448.44,461.57C449.51,462.36 451.19,463.00 452.17,463.00zM431.63,458.95C432.80,458.98 434.20,458.44 434.75,457.75C435.29,457.06 435.97,452.58 436.26,447.78C436.65,441.24 436.44,438.78 435.45,437.96C434.72,437.35 431.63,436.86 428.58,436.86C425.53,436.86 422.58,437.14 422.02,437.49C421.46,437.83 421.00,439.14 421.00,440.39C421.00,441.64 421.26,442.93 421.59,443.25C421.91,443.57 423.49,443.38 425.10,442.81C426.72,442.25 429.15,442.07 430.52,442.42C432.12,442.82 433.00,443.74 433.00,445.03C433.00,446.40 431.61,447.70 428.55,449.19C426.10,450.38 424.33,451.72 424.61,452.18C424.89,452.63 426.44,453.00 428.06,453.00C429.68,453.00 431.00,453.40 431.00,453.89C431.00,454.38 429.31,455.11 427.25,455.52C423.50,456.26 423.50,456.26 426.50,457.59C428.15,458.31 430.46,458.93 431.63,458.95zM348.13,454.90C348.47,454.96 349.18,454.44 349.69,453.75C350.20,453.06 351.18,450.22 351.85,447.44C352.53,444.66 352.79,441.61 352.43,440.67C352.06,439.72 351.03,438.56 350.13,438.09C349.23,437.62 347.52,437.61 346.32,438.06C345.11,438.52 343.64,439.81 343.03,440.94C342.42,442.07 341.34,443.00 340.62,443.00C339.90,443.00 338.54,443.86 337.59,444.90C336.45,446.16 336.23,447.03 336.94,447.47C337.53,447.83 338.89,447.85 339.96,447.51C341.02,447.17 342.18,446.02 342.52,444.95C342.91,443.71 344.03,443.00 345.60,443.00C346.95,443.00 348.33,443.69 348.65,444.53C349.00,445.44 348.16,447.04 346.57,448.53C345.10,449.89 343.43,451.00 342.87,451.00C342.30,451.00 342.02,451.55 342.24,452.22C342.46,452.89 343.74,453.75 345.07,454.12C346.41,454.50 347.78,454.85 348.13,454.90zM407.90,454.00C410.52,454.00 411.98,453.48 412.39,452.42C412.73,451.55 413.00,447.75 413.00,443.98C413.00,440.20 412.58,436.86 412.07,436.54C411.56,436.23 407.84,435.88 403.81,435.77C399.78,435.67 395.93,435.93 395.24,436.35C394.56,436.77 394.00,438.19 394.00,439.50C394.00,440.81 394.46,442.17 395.03,442.52C395.59,442.87 396.91,442.11 397.95,440.83C399.63,438.77 399.93,438.69 400.51,440.19C400.87,441.12 401.01,442.70 400.82,443.69C400.59,444.86 399.58,445.50 397.98,445.50C395.99,445.50 395.43,446.07 395.17,448.37C394.99,449.95 395.36,451.75 395.99,452.37C396.84,453.21 397.47,453.05 398.43,451.75C399.14,450.79 400.13,450.00 400.62,450.00C401.11,450.00 402.08,450.90 402.77,452.00C403.67,453.44 405.10,454.00 407.90,454.00zM384.09,427.00C385.18,427.00 386.31,426.35 386.62,425.56C387.06,424.39 389.24,424.18 397.83,424.45C403.70,424.64 409.29,424.37 410.25,423.86C411.21,423.35 412.00,422.26 412.00,421.45C412.00,420.36 412.67,420.13 414.51,420.59C416.67,421.13 417.21,420.74 418.48,417.70C419.64,414.94 419.72,413.48 418.85,411.01C418.05,408.70 418.05,407.19 418.86,405.42C419.95,403.01 420.05,402.99 433.23,403.25C446.50,403.50 446.50,403.50 446.80,408.56C446.96,411.35 446.65,414.80 446.10,416.22C445.13,418.79 445.02,418.81 437.18,418.28C432.82,417.98 427.62,418.04 425.62,418.41C423.48,418.81 422.00,419.67 422.00,420.51C422.00,421.29 422.94,422.43 424.08,423.04C425.68,423.90 427.07,423.79 430.10,422.58C432.27,421.71 435.85,421.00 438.06,421.00C441.34,421.00 442.03,421.32 441.79,422.75C441.55,424.18 442.37,424.56 446.19,424.80C450.22,425.06 451.05,424.78 452.12,422.80C452.80,421.54 453.53,415.77 453.73,410.00C453.94,404.23 453.70,398.91 453.21,398.20C452.58,397.27 447.23,396.62 434.91,395.97C425.33,395.46 409.81,395.04 400.40,395.02C384.73,395.00 383.16,395.16 381.55,396.94C380.03,398.63 379.84,400.56 380.15,411.69C380.35,418.74 380.87,425.06 381.31,425.75C381.76,426.44 383.01,427.00 384.09,427.00zM296.52,423.35C297.18,423.10 298.29,421.84 298.98,420.54C299.67,419.25 299.93,417.70 299.56,417.10C299.19,416.49 298.01,416.00 296.94,416.00C295.55,416.00 295.00,416.69 295.00,418.44C295.00,419.78 294.50,421.19 293.89,421.57C293.11,422.05 293.16,422.48 294.05,423.03C294.75,423.46 295.86,423.61 296.52,423.35zM339.85,420.51C344.85,420.36 347.49,419.84 348.09,418.89C348.57,418.13 348.98,409.72 348.98,400.20C349.00,383.59 348.91,382.82 346.75,380.66C344.57,378.47 343.55,378.37 312.59,377.19C283.92,376.10 280.44,376.14 278.28,377.55C275.88,379.13 275.88,379.13 276.19,397.48C276.36,407.58 276.82,416.16 277.21,416.54C277.60,416.93 278.61,416.98 279.46,416.65C280.77,416.15 281.00,413.42 281.00,398.60C281.00,383.77 281.25,380.90 282.64,379.51C283.89,378.26 285.25,378.03 288.39,378.55C290.65,378.92 292.84,379.43 293.25,379.67C293.66,379.92 294.00,380.71 294.00,381.43C294.00,382.38 295.47,382.69 299.25,382.53C302.14,382.41 306.63,381.96 309.22,381.52C312.99,380.90 314.49,381.09 316.63,382.49C318.97,384.03 319.10,384.36 317.65,385.17C316.74,385.68 316.00,386.90 316.00,387.88C316.00,388.86 316.30,389.96 316.66,390.32C317.02,390.69 317.92,390.48 318.66,389.87C319.40,389.26 320.00,387.74 320.00,386.50C320.00,384.78 320.73,384.10 323.12,383.62C324.84,383.28 327.68,383.00 329.43,383.00C331.18,383.00 333.43,383.60 334.43,384.33C335.80,385.33 336.05,386.24 335.43,388.08C334.98,389.41 334.72,391.07 334.85,391.76C334.98,392.45 333.83,393.50 332.30,394.10C330.29,394.88 328.64,394.87 326.43,394.09C324.74,393.49 322.47,393.00 321.38,393.00C320.29,393.00 318.86,393.54 318.20,394.20C317.27,395.13 316.23,395.12 313.53,394.15C311.59,393.44 308.58,393.18 306.67,393.53C304.02,394.03 303.14,393.80 302.63,392.47C302.10,391.09 301.70,391.01 300.49,392.01C299.67,392.69 299.00,393.85 299.00,394.59C299.00,395.33 298.10,396.41 297.00,397.00C295.90,397.59 295.00,398.52 295.00,399.07C295.00,399.61 295.75,400.35 296.66,400.70C297.75,401.12 299.03,400.45 300.41,398.73C302.36,396.30 302.90,396.17 308.63,396.69C314.69,397.25 314.77,397.30 315.88,400.99C316.50,403.05 317.00,405.47 317.00,406.37C317.00,407.26 317.45,408.00 318.00,408.00C318.55,408.00 319.01,406.31 319.02,404.25C319.02,402.19 319.45,399.84 319.96,399.03C320.74,397.80 321.45,397.76 324.27,398.78C326.12,399.45 328.65,400.00 329.89,400.00C331.12,400.00 333.01,399.53 334.08,398.96C335.61,398.14 336.17,398.27 336.66,399.56C337.01,400.46 336.89,403.75 336.40,406.85C335.53,412.28 335.39,412.49 332.66,412.20C331.10,412.03 329.21,412.41 328.46,413.03C327.71,413.65 326.22,413.89 325.15,413.55C323.99,413.18 322.56,413.58 321.61,414.54C320.72,415.42 320.00,416.99 320.00,418.02C320.00,419.62 320.94,419.97 326.25,420.32C329.69,420.54 335.81,420.63 339.85,420.51zM396.50,418.82C395.95,418.75 394.04,418.50 392.25,418.28C389.89,417.98 388.88,417.28 388.56,415.69C388.31,414.48 387.93,411.15 387.70,408.27C387.36,403.80 387.57,402.95 389.20,402.44C390.25,402.10 394.91,402.15 399.56,402.53C408.00,403.24 408.00,403.24 408.00,410.51C408.00,417.51 407.90,417.81 405.40,418.43C403.98,418.79 402.27,418.64 401.62,418.10C400.88,417.49 399.88,417.46 398.97,418.04C398.16,418.55 397.05,418.90 396.50,418.82zM294.75,392.52C296.81,392.14 298.67,391.66 298.87,391.45C299.08,391.25 298.98,390.39 298.65,389.54C298.33,388.69 297.30,388.00 296.36,388.00C295.42,388.00 293.83,388.74 292.83,389.65C291.82,390.57 291.00,391.74 291.00,392.27C291.00,392.83 292.54,392.93 294.75,392.52zM396.34,383.80C397.99,383.64 399.52,382.97 399.73,382.31C399.96,381.64 398.49,380.68 396.34,380.08C393.99,379.43 392.21,379.39 391.62,379.98C391.04,380.56 391.18,381.52 392.01,382.51C392.82,383.48 394.50,383.99 396.34,383.80zM442.13,357.82C455.71,357.97 458.98,357.73 459.98,356.53C460.65,355.72 461.27,353.58 461.35,351.78C461.50,348.50 461.50,348.50 455.83,347.99C452.71,347.72 449.82,347.16 449.42,346.75C449.01,346.34 449.17,344.93 449.77,343.60C450.37,342.28 450.60,340.93 450.27,340.60C449.94,340.27 448.20,340.00 446.42,340.00C444.63,340.00 442.45,340.27 441.58,340.61C440.64,340.97 440.00,342.39 440.00,344.11C440.00,347.00 440.00,347.00 430.25,347.15C424.89,347.23 399.12,347.21 373.00,347.10C325.50,346.91 325.50,346.91 325.50,343.20C325.50,339.92 325.22,339.50 323.00,339.50C320.90,339.50 320.42,340.07 320.00,343.00C319.52,346.33 319.29,346.52 315.13,346.81C310.75,347.13 310.75,347.13 312.88,344.43C314.04,342.94 315.00,341.12 315.00,340.37C315.00,339.61 313.98,339.00 312.69,339.00C311.42,339.00 309.37,339.94 308.15,341.08C306.68,342.45 306.12,343.81 306.52,345.08C307.11,346.93 306.40,347.00 286.64,347.00C269.05,347.00 265.91,347.23 264.52,348.62C263.62,349.52 263.03,351.21 263.20,352.37C263.45,354.16 264.45,354.63 269.50,355.30C272.80,355.74 309.25,356.44 350.50,356.87C391.75,357.29 432.98,357.72 442.13,357.82zM429.60,344.81C431.31,344.91 434.12,344.51 435.85,343.90C437.58,343.30 439.00,342.39 439.00,341.88C439.00,341.33 432.46,341.06 423.25,341.22C413.60,341.39 407.50,341.89 407.50,342.50C407.50,343.06 411.71,343.75 417.00,344.06C422.23,344.37 427.90,344.70 429.60,344.81zM394.91,323.05C395.96,322.49 397.79,320.46 398.98,318.54C400.32,316.36 401.01,313.84 400.82,311.82C400.58,309.44 399.68,308.12 397.38,306.78C395.66,305.78 393.63,305.21 392.86,305.50C392.09,305.80 390.86,306.99 390.14,308.15C389.35,309.41 389.20,310.52 389.76,310.88C390.28,311.22 391.22,312.48 391.85,313.68C392.48,314.89 393.00,317.71 393.00,319.97C393.00,323.70 393.17,323.98 394.91,323.05zM444.00,322.80C451.98,322.74 459.52,322.31 460.77,321.86C463.03,321.04 463.05,320.93 462.77,303.77C462.50,286.50 462.50,286.50 457.50,286.53C454.75,286.54 448.45,286.77 443.50,287.03C434.50,287.50 434.50,287.50 434.21,277.75C433.99,269.99 433.63,268.00 432.46,268.00C431.66,268.00 430.10,268.90 429.00,270.00C427.11,271.89 427.00,273.33 427.00,296.92C427.00,315.89 427.30,321.96 428.25,322.37C428.94,322.67 436.02,322.86 444.00,322.80zM455.87,318.32C454.57,318.45 449.34,318.41 444.25,318.24C435.00,317.92 435.00,317.92 435.00,306.96C435.00,296.00 435.00,296.00 447.00,296.00C459.00,296.00 459.00,296.00 459.00,302.96C459.00,308.76 458.68,310.10 457.12,310.94C455.84,311.62 453.51,311.58 449.84,310.81C445.47,309.90 443.89,309.95 441.54,311.09C439.95,311.87 438.48,313.01 438.28,313.63C438.08,314.25 438.72,315.07 439.71,315.45C440.69,315.83 445.45,316.41 450.27,316.72C455.09,317.04 458.86,317.48 458.64,317.69C458.42,317.91 457.18,318.19 455.87,318.32zM385.00,318.00C388.15,318.00 389.00,317.63 388.98,316.25C388.98,315.29 388.58,313.88 388.10,313.13C387.38,311.99 386.70,312.07 384.11,313.59C382.40,314.60 381.00,316.01 381.00,316.72C381.00,317.55 382.41,318.00 385.00,318.00zM294.05,316.97C294.91,316.99 297.14,315.42 299.00,313.50C301.33,311.09 302.07,309.67 301.37,308.97C300.80,308.40 299.61,308.21 298.73,308.55C297.84,308.89 296.83,310.48 296.48,312.08C296.13,313.68 295.09,315.43 294.17,315.96C292.74,316.80 292.73,316.94 294.05,316.97zM331.40,316.78C341.50,316.50 341.50,316.50 341.77,293.09C342.04,269.69 342.04,269.69 328.77,270.33C321.47,270.68 309.20,271.43 301.50,272.00C293.80,272.57 285.70,273.20 283.50,273.40C279.50,273.76 279.50,273.76 278.98,282.34C278.69,287.07 278.69,296.42 278.98,303.13C279.34,311.62 279.88,315.47 280.75,315.75C281.65,316.05 282.00,314.65 282.00,310.83C282.00,307.90 282.74,299.95 283.64,293.17C285.17,281.76 285.48,280.77 287.71,279.92C289.04,279.41 291.94,279.00 294.16,279.00C297.24,279.00 298.30,279.44 298.67,280.85C299.08,282.43 300.13,282.69 305.83,282.60C309.50,282.55 314.13,282.88 316.12,283.34C319.56,284.13 319.80,284.02 320.82,281.09C321.41,279.39 322.32,278.00 322.83,278.00C323.35,278.00 324.02,278.96 324.33,280.14C324.83,282.06 325.36,282.22 329.40,281.67C333.92,281.05 333.92,281.05 334.60,284.68C335.14,287.56 334.90,288.60 333.47,289.65C332.47,290.38 330.08,291.27 328.17,291.63C326.13,292.01 323.92,291.81 322.85,291.14C321.85,290.51 320.39,290.00 319.62,290.00C318.85,290.00 317.93,290.74 317.58,291.64C317.24,292.54 317.22,294.12 317.55,295.14C317.87,296.17 318.96,297.44 319.97,297.98C321.18,298.63 322.82,298.61 324.82,297.91C326.48,297.33 329.34,297.00 331.17,297.18C334.19,297.47 334.53,297.83 334.80,301.06C334.96,303.01 334.64,305.83 334.07,307.31C333.09,309.90 332.78,310.00 325.49,310.00C319.38,310.00 317.82,310.32 317.30,311.66C316.89,312.72 317.50,313.98 318.99,315.19C320.97,316.80 322.75,317.03 331.40,316.78zM352.06,314.97C353.89,313.99 354.00,312.68 354.00,292.59C354.00,275.76 353.71,271.00 352.63,270.11C351.60,269.26 351.00,269.29 350.22,270.24C349.58,271.01 349.06,279.72 348.90,292.56C348.76,304.14 348.98,314.15 349.38,314.81C349.91,315.67 350.66,315.72 352.06,314.97zM421.50,313.55C422.05,313.44 422.65,312.12 422.82,310.61C423.00,309.11 422.61,307.23 421.95,306.44C421.10,305.41 418.51,305.00 412.88,305.00C405.19,305.00 405.00,305.06 405.00,307.44C405.00,308.78 405.56,310.23 406.23,310.65C406.91,311.06 410.40,311.94 413.98,312.59C417.57,313.23 420.95,313.67 421.50,313.55zM295.44,300.00C296.71,300.00 298.32,299.32 299.00,298.50C299.68,297.68 301.27,297.00 302.52,297.00C303.76,297.00 305.06,296.29 305.39,295.42C305.73,294.55 306.00,293.42 306.00,292.92C306.00,292.41 304.83,292.00 303.41,292.00C301.65,292.00 300.64,292.65 300.29,294.00C299.90,295.49 298.93,296.00 296.44,296.00C294.61,296.00 292.84,296.45 292.50,297.00C292.16,297.55 292.16,298.45 292.50,299.00C292.84,299.55 294.16,300.00 295.44,300.00zM395.52,288.00C397.52,288.00 398.43,287.22 399.55,284.53C400.35,282.62 401.00,279.79 401.00,278.22C401.00,276.66 400.42,274.59 399.71,273.62C398.77,272.33 397.35,271.94 394.46,272.18C391.24,272.44 390.44,272.92 390.18,274.74C389.92,276.60 389.31,276.95 386.68,276.74C384.05,276.54 383.45,276.89 383.18,278.75C382.99,280.08 383.40,281.04 384.18,281.09C384.91,281.14 386.84,281.25 388.48,281.34C390.62,281.46 391.56,282.07 391.79,283.50C391.97,284.60 392.30,286.06 392.53,286.75C392.75,287.44 394.10,288.00 395.52,288.00zM459.00,283.62C462.28,283.51 462.56,283.23 463.39,279.27C464.03,276.21 463.93,274.62 463.02,273.52C462.18,272.51 459.98,272.00 456.45,272.00C451.87,272.00 450.85,272.37 449.01,274.71C447.27,276.93 446.71,277.16 445.98,275.97C445.31,274.89 444.80,274.80 443.95,275.65C443.32,276.28 442.97,277.62 443.17,278.64C443.37,279.66 444.25,280.51 445.13,280.52C446.01,280.52 447.35,281.05 448.11,281.68C448.88,282.31 450.85,283.03 452.50,283.28C454.15,283.54 457.07,283.69 459.00,283.62zM414.45,281.50C417.72,281.14 421.24,280.41 422.26,279.86C423.52,279.19 424.02,277.99 423.81,276.18C423.51,273.59 423.27,273.49 416.42,273.21C412.53,273.05 408.14,273.38 406.67,273.93C405.03,274.56 404.00,275.71 404.00,276.92C404.00,278.00 405.01,279.62 406.25,280.51C408.01,281.78 409.80,282.00 414.45,281.50zM443.25,263.82C444.91,263.58 445.59,262.72 445.84,260.50C446.03,258.86 446.70,257.17 447.34,256.77C447.98,256.36 449.88,256.02 451.56,256.02C453.24,256.01 455.47,256.63 456.52,257.39C458.11,258.55 458.21,259.04 457.14,260.33C456.43,261.18 454.65,262.03 453.18,262.21C450.67,262.53 450.71,262.58 453.84,263.11C456.03,263.49 457.66,263.19 458.59,262.27C459.36,261.49 460.00,259.86 460.00,258.65C460.00,257.44 459.30,255.44 458.44,254.22C457.25,252.52 455.89,252.00 452.67,252.00C450.34,252.00 447.50,252.66 446.35,253.47C445.20,254.27 443.53,256.48 442.63,258.37C441.73,260.26 441.00,262.33 441.00,262.97C441.00,263.61 442.01,264.00 443.25,263.82zM267.92,256.98C268.24,256.98 269.13,256.57 269.90,256.09C271.05,255.35 271.22,250.23 270.90,226.12C270.50,197.04 270.50,197.04 283.19,196.54C290.17,196.26 298.94,195.59 302.69,195.03C306.44,194.48 312.88,193.91 317.00,193.76C324.50,193.50 324.50,193.50 325.00,223.00C325.43,248.33 325.71,252.50 327.00,252.50C328.29,252.50 328.57,248.28 329.00,222.50C329.27,206.00 329.86,191.94 330.31,191.25C330.75,190.56 331.71,190.00 332.43,190.00C333.24,190.00 333.98,191.82 334.37,194.75C334.72,197.36 335.02,211.47 335.04,226.10C335.07,252.71 335.07,252.71 344.25,253.30C349.30,253.63 353.63,253.71 353.86,253.47C354.09,253.24 354.41,244.60 354.57,234.27C354.72,223.95 354.55,204.25 354.17,190.50C353.50,165.50 353.50,165.50 350.50,165.60C348.85,165.66 343.00,166.46 337.50,167.39C332.00,168.32 326.71,169.32 325.75,169.61C324.40,170.01 324.00,171.23 324.00,174.91C324.00,178.39 323.47,180.17 322.04,181.47C320.96,182.44 319.40,182.98 318.57,182.66C317.74,182.35 316.41,182.73 315.63,183.52C314.84,184.30 308.92,185.89 302.47,187.05C296.02,188.20 289.79,189.51 288.62,189.95C287.45,190.39 284.03,191.09 281.02,191.50C278.01,191.91 273.75,192.88 271.56,193.65C269.37,194.43 267.23,195.61 266.81,196.28C266.38,196.95 266.02,210.59 266.02,226.58C266.01,242.58 266.30,255.97 266.67,256.33C267.03,256.70 267.60,256.99 267.92,256.98zM401.20,256.82C402.43,256.64 404.46,254.97 405.72,253.10C406.97,251.23 408.00,248.42 408.00,246.85C408.00,245.28 407.12,243.12 406.05,242.05C404.53,240.53 403.02,240.17 399.30,240.42C396.66,240.60 394.16,240.81 393.75,240.88C393.34,240.94 393.00,241.90 393.00,243.00C393.00,244.47 393.67,245.00 395.51,245.00C396.90,245.00 398.93,244.44 400.04,243.75C401.71,242.72 402.23,242.76 403.02,244.00C403.54,244.82 403.98,246.45 403.98,247.61C403.99,248.77 402.87,251.39 401.48,253.43C398.96,257.14 398.96,257.14 401.20,256.82zM285.33,252.00C286.62,252.00 287.92,251.75 288.22,251.44C288.53,251.14 288.55,250.01 288.27,248.94C287.95,247.70 286.90,247.00 285.38,247.00C283.51,247.00 283.00,247.53 283.00,249.50C283.00,251.45 283.51,252.00 285.33,252.00zM301.26,252.00C302.71,252.00 303.06,251.38 302.82,249.25C302.57,247.09 301.91,246.43 299.74,246.18C297.86,245.97 296.78,246.41 296.33,247.58C295.92,248.66 296.35,249.79 297.53,250.64C298.55,251.39 300.23,252.00 301.26,252.00zM383.52,251.00C384.61,251.00 385.00,249.80 385.00,246.43C385.00,242.62 384.71,241.91 383.26,242.19C382.31,242.37 381.37,243.34 381.17,244.34C380.98,245.34 381.10,247.25 381.43,248.58C381.76,249.91 382.70,251.00 383.52,251.00zM313.57,250.00C315.27,250.00 316.97,249.70 317.34,249.33C317.70,248.96 317.26,247.84 316.35,246.83C315.37,245.75 313.32,245.00 311.35,245.00C309.51,245.00 308.00,245.23 308.00,245.51C308.00,245.80 308.56,246.92 309.24,248.01C310.04,249.30 311.57,250.00 313.57,250.00zM288.00,238.41C290.48,238.04 298.30,237.45 305.40,237.12C315.70,236.62 318.49,236.18 319.30,234.89C320.07,233.66 319.62,232.42 317.41,229.64C315.21,226.90 313.76,226.00 311.50,226.02C309.85,226.02 307.88,226.42 307.12,226.90C306.36,227.38 306.05,228.28 306.43,228.89C306.81,229.50 308.58,230.00 310.37,230.00C312.16,230.00 314.49,230.64 315.56,231.43C316.86,232.39 317.17,233.20 316.50,233.87C315.95,234.43 312.91,234.91 309.75,234.94C306.59,234.97 301.41,235.08 298.25,235.17C295.09,235.26 291.15,235.28 289.50,235.21C287.85,235.14 285.65,235.04 284.60,234.99C283.56,234.94 282.21,235.39 281.61,235.99C280.82,236.78 280.93,237.36 282.01,238.08C282.86,238.66 285.43,238.79 288.00,238.41zM343.13,239.00C342.18,239.00 340.87,238.47 340.22,237.82C339.36,236.96 339.34,236.29 340.15,235.32C340.75,234.60 341.81,234.00 342.50,234.00C343.19,234.00 344.32,233.32 345.00,232.50C345.68,231.68 346.64,231.00 347.12,231.00C347.61,231.00 348.00,232.09 348.00,233.43C348.00,234.76 347.29,236.56 346.43,237.43C345.56,238.29 344.08,239.00 343.13,239.00zM344.99,229.00C344.47,229.00 343.32,227.89 342.44,226.54C341.55,225.19 341.12,223.62 341.47,223.04C341.83,222.47 342.94,222.00 343.94,222.00C344.94,222.00 346.29,222.65 346.95,223.44C347.83,224.50 347.85,225.40 347.03,226.94C346.43,228.07 345.51,229.00 344.99,229.00zM426.00,228.62C427.93,228.33 436.36,227.78 444.75,227.40C454.87,226.94 460.35,226.29 461.03,225.47C461.66,224.71 461.95,217.99 461.78,207.87C461.50,191.50 461.50,191.50 452.00,191.70C446.77,191.81 438.45,192.41 433.50,193.04C428.55,193.67 423.49,194.82 422.25,195.61C420.08,196.99 420.00,197.59 420.00,211.82C420.00,222.30 420.36,226.97 421.25,227.88C422.02,228.66 423.84,228.95 426.00,228.62zM286.52,227.35C287.25,227.07 288.11,226.15 288.44,225.30C288.77,224.44 288.50,223.11 287.85,222.32C287.21,221.54 285.74,221.04 284.60,221.20C283.46,221.37 282.35,222.37 282.15,223.43C281.95,224.50 282.55,225.93 283.49,226.62C284.43,227.30 285.79,227.63 286.52,227.35zM298.56,225.86C299.14,225.94 300.49,225.36 301.56,224.57C302.99,223.51 303.21,222.84 302.38,222.00C301.77,221.37 299.52,221.01 297.39,221.18C294.73,221.40 293.42,222.02 293.20,223.17C292.99,224.26 293.69,225.00 295.19,225.29C296.46,225.53 297.98,225.79 298.56,225.86zM390.67,223.88C393.51,223.95 396.55,223.73 397.42,223.39C398.29,223.06 399.00,221.99 399.00,221.02C399.00,220.04 398.35,218.71 397.56,218.05C396.48,217.15 395.61,217.14 393.99,218.01C392.69,218.70 390.26,218.88 387.80,218.47C384.88,217.97 383.51,218.16 382.89,219.14C382.42,219.89 382.02,221.03 382.02,221.68C382.01,222.32 382.79,223.06 383.75,223.31C384.71,223.56 387.83,223.82 390.67,223.88zM311.88,223.00C314.91,223.00 317.21,222.45 317.95,221.56C318.61,220.76 319.01,219.08 318.83,217.82C318.65,216.55 317.71,215.37 316.75,215.19C315.45,214.94 315.00,215.52 315.00,217.43C315.00,219.76 314.63,220.00 311.00,220.00C308.11,220.00 307.00,220.42 307.00,221.50C307.00,222.63 308.21,223.00 311.88,223.00zM429.31,219.99C428.10,219.99 426.89,219.64 426.62,219.19C426.34,218.75 425.82,216.09 425.44,213.29C424.85,208.79 425.01,208.07 426.82,207.10C427.95,206.49 430.47,206.00 432.43,206.00C436.00,206.00 436.00,206.00 436.00,212.38C436.00,218.16 435.79,218.82 433.75,219.37C432.51,219.70 430.51,219.98 429.31,219.99zM447.07,218.00C442.00,218.00 442.00,218.00 442.00,211.50C442.00,205.44 442.15,205.00 444.25,204.94C445.49,204.91 448.28,204.70 450.46,204.47C452.90,204.22 454.72,204.53 455.19,205.28C455.62,205.95 455.98,208.62 455.98,211.21C456.00,214.86 455.56,216.16 454.07,216.96C453.00,217.53 449.85,218.00 447.07,218.00zM284.96,212.80C286.65,212.60 287.60,211.80 287.80,210.41C287.96,209.26 287.43,207.77 286.61,207.09C285.50,206.17 284.61,206.14 283.06,206.97C281.93,207.57 281.00,208.88 281.00,209.87C281.00,210.86 281.32,211.99 281.71,212.38C282.10,212.77 283.57,212.96 284.96,212.80zM297.88,212.00C300.94,212.00 301.88,211.57 302.29,209.98C302.59,208.87 302.14,207.29 301.31,206.45C300.35,205.50 298.99,205.18 297.64,205.60C296.47,205.97 295.17,206.77 294.77,207.38C294.36,208.00 294.02,209.29 294.02,210.25C294.00,211.62 294.85,212.00 297.88,212.00zM312.00,211.00C314.21,211.00 316.30,210.35 317.07,209.42C318.03,208.26 318.10,207.38 317.32,206.17C316.55,204.97 315.17,204.59 312.38,204.83C310.24,205.02 307.86,205.78 307.09,206.53C305.93,207.65 305.90,208.18 306.96,209.45C307.70,210.35 309.83,211.00 312.00,211.00zM344.44,202.26C342.58,202.61 341.50,202.16 340.47,200.60C339.68,199.40 339.33,197.44 339.67,196.15C340.13,194.38 340.77,193.97 342.39,194.41C343.55,194.72 345.06,194.98 345.75,194.99C346.50,194.99 347.00,196.35 347.00,198.38C347.00,201.22 346.59,201.85 344.44,202.26zM397.50,197.63C398.05,197.47 398.65,196.56 398.83,195.62C399.02,194.67 398.44,192.80 397.56,191.45C396.60,189.99 395.00,189.00 393.58,189.00C392.28,189.00 391.00,189.56 390.75,190.25C390.49,190.94 390.57,192.34 390.94,193.36C391.30,194.38 392.70,195.83 394.05,196.57C395.40,197.32 396.95,197.79 397.50,197.63zM308.17,180.68C310.30,180.47 312.32,180.02 312.66,179.67C313.00,179.33 313.41,174.79 313.56,169.58C313.77,162.50 313.49,159.83 312.47,158.97C311.71,158.35 310.26,158.10 309.23,158.43C308.20,158.75 306.28,160.48 304.96,162.26C303.20,164.64 302.46,167.16 302.17,171.76C301.90,175.88 302.20,178.54 303.03,179.54C303.90,180.58 305.54,180.95 308.17,180.68zM308.40,173.71C307.80,173.90 306.70,173.34 305.96,172.45C304.98,171.27 304.90,170.38 305.67,169.17C306.24,168.25 307.49,167.35 308.43,167.16C309.81,166.89 310.08,167.45 309.82,170.09C309.64,171.88 309.01,173.51 308.40,173.71z"/>

</svg>