<?xml version="1.0" encoding="UTF-8" standalone="no"?>
<!DOCTYPE svg PUBLIC "-//W3C//DTD SVG 20010904//EN" "http://www.w3.org/TR/2001/REC-SVG-20010904/DTD/svg10.dtd">
<svg version="1.0" xmlns="http://www.w3.org/2000/svg" width="300.000000pt" height="233.000000pt" viewBox="0 0 300.000000 233.000000" preserveAspectRatio="xMidYMid meet">
<metadata>
Created by potrace 1.10, written by Peter Selinger 2001-2011
</metadata>
<g transform="translate(0.000000,233.000000) scale(0.100000,-0.100000)" fill="#d4ffe0" stroke="none">
<path fill="#d4ffe0" d="M854 2289 c-47 -14 -91 -69 -100 -124 -3 -25 -4 -86 -2 -135 5 -100 19 -129 79 -165 26 -15 51 -20 107 -20 l72 1 0 -137 0 -136 -134 -131 -134 -131 134 -127 134 -126 0 -149 0 -149 -24 0 c-36 0 -108 -59 -133 -110 -47 -91 -16 -211 69 -267 33 -22 55 -28 112 -31 67 -4 74 -2 120 30 64 43 96 101 96 175 0 89 -56 170 -136 198 l-39 13 -3 145 -3 144 125 117 124 116 190 0 190 0 12 -37 c24 -74 75 -120 163 -147 15 -5 17 -22 17 -176 l0 -170 -141 0 c-109 0 -140 -3 -136 -12 4 -7 42 -98 85 -201 l80 -188 266 -2 c233 -2 266 0 261 13 -4 8 -41 99 -83 202 l-77 187 -97 1 -98 0 0 174 0 174 30 5 c37 8 103 67 124 111 21 44 21 138 0 179 -57 113 -192 155 -298 93 -45 -26 -96 -95 -96 -129 0 -15 -20 -17 -202 -17 l-203 0 -117 111 -118 111 0 136 0 137 79 0 c86 0 113 12 155 69 19 24 21 42 21 156 0 140 -6 157 -69 204 -25 19 -43 21 -199 23 -95 1 -186 -2 -203 -8z m373 -91 c21 -20 23 -30 23 -129 0 -104 -1 -108 -26 -128 -24 -19 -40 -21 -186 -21 -155 0 -159 1 -183 25 -23 22 -25 31 -25 125 0 94 2 103 25 125 24 24 27 25 186 25 153 0 164 -1 186 -22z m-80 -789 l99 -97 -103 -97 -104 -98 -97 94 c-53 52 -99 95 -101 97 -7 4 193 203 201 200 3 -2 51 -46 105 -99z m840 21 c101 -61 76 -220 -40 -251 -78 -21 -161 34 -174 115 -7 44 26 114 64 138 38 24 110 23 150 -2z m-871 -755 c62 -40 82 -129 43 -192 -52 -83 -173 -86 -234 -5 -28 37 -27 120 1 159 45 61 129 78 190 38z m1034 -107 c29 -68 54 -129 57 -135 4 -10 -38 -13 -188 -13 l-194 0 -22 53 c-11 28 -37 89 -57 135 l-35 82 193 0 194 0 52 -122z"/>
<path fill="#d4ffe0" d="M1873 2293 c-7 -2 -13 -11 -13 -18 0 -17 -26 -26 -54 -19 -30 7 -54 -20 -39 -45 13 -20 0 -51 -21 -51 -28 0 -25 -30 5 -61 24 -24 28 -34 18 -45 -18 -21 7 -46 40 -39 29 6 44 -2 54 -27 9 -25 48 -23 54 2 6 21 8 22 58 24 26 1 30 5 31 31 2 50 3 52 24 58 24 6 29 57 5 57 -19 0 -36 32 -25 50 5 8 4 22 -1 32 -8 15 -17 17 -43 13 -28 -6 -35 -3 -50 19 -17 26 -21 28 -43 19z m55 -110 c31 -28 35 -56 11 -86 -25 -33 -70 -36 -99 -7 -26 26 -25 51 1 84 24 30 58 34 87 9z"/>
<path fill="#d4ffe0" d="M2066 2024 c-9 -8 -16 -21 -16 -27 -1 -7 -16 -19 -35 -28 -29 -14 -37 -14 -46 -3 -17 20 -37 17 -50 -7 -8 -17 -8 -24 4 -36 12 -12 12 -19 -1 -48 -9 -20 -24 -35 -36 -37 -15 -2 -22 -12 -24 -30 -3 -26 4 -32 33 -29 6 0 17 -17 27 -39 14 -33 14 -41 2 -51 -18 -15 -18 -24 2 -44 14 -14 19 -14 38 -2 18 12 25 12 53 -1 18 -8 34 -25 37 -39 5 -16 14 -23 31 -23 17 0 26 7 31 23 3 14 19 31 38 39 27 13 35 14 50 2 35 -25 76 17 42 45 -11 10 -11 17 5 49 11 20 24 38 29 38 6 1 14 2 19 3 15 2 22 33 10 47 -6 8 -19 14 -28 14 -9 1 -23 16 -32 35 -14 30 -14 36 -1 49 8 8 12 22 9 30 -9 24 -36 31 -53 14 -13 -13 -19 -13 -49 1 -19 9 -34 23 -35 32 0 16 -19 39 -31 39 -4 0 -15 -7 -23 -16z m68 -114 c32 -12 66 -65 66 -103 0 -70 -67 -125 -136 -112 -43 8 -94 65 -94 106 0 86 82 140 164 109z"/>
<path fill="#d4ffe0" d="M1657 1879 c-21 -24 -30 -29 -41 -20 -21 18 -47 2 -46 -28 4 -48 0 -59 -20 -64 -12 -3 -20 -14 -20 -27 0 -13 8 -24 20 -27 11 -3 20 -13 21 -22 1 -9 2 -27 2 -41 2 -19 8 -25 27 -27 14 0 32 -1 41 -2 9 -1 19 -10 22 -21 7 -27 41 -26 59 2 12 17 23 22 52 20 40 -3 57 17 36 43 -10 12 -6 20 19 43 32 29 35 62 5 62 -21 0 -34 31 -21 52 16 25 -13 55 -39 40 -22 -12 -54 1 -54 22 0 11 -20 26 -34 26 -1 0 -14 -14 -29 -31z m78 -94 c44 -43 21 -105 -39 -105 -62 0 -93 74 -46 112 30 25 56 23 85 -7z"/>
</g>
</svg>