<?xml version="1.0" encoding="UTF-8"?>
<svg xmlns="http://www.w3.org/2000/svg" xmlns:xlink="http://www.w3.org/1999/xlink" width="28px" height="28px" viewBox="0 0 28 28" version="1.1">
<g id="surface1">
<path style=" stroke:none;fill-rule:nonzero;fill:rgb(84.705883%,98.823529%,89.411765%);fill-opacity:1;" d="M 14.464844 23.332031 L 25.667969 23.332031 C 25.945312 23.332031 26.132812 23.148438 26.132812 22.867188 L 26.132812 0.464844 C 26.132812 0.1875 25.945312 0 25.667969 0 L 2.332031 0 C 2.054688 0 1.867188 0.1875 1.867188 0.464844 L 1.867188 22.867188 C 1.867188 23.148438 2.054688 23.332031 2.332031 23.332031 L 13.535156 23.332031 L 13.535156 27.066406 L 0 27.066406 L 0 28 L 28 28 L 28 27.066406 L 14.464844 27.066406 Z M 2.800781 0.933594 L 25.199219 0.933594 L 25.199219 7.464844 L 2.800781 7.464844 Z M 2.800781 8.398438 L 25.199219 8.398438 L 25.199219 14.933594 L 2.800781 14.933594 Z M 2.800781 22.398438 L 2.800781 15.867188 L 25.199219 15.867188 L 25.199219 22.398438 Z M 2.800781 22.398438 "/>
<path style=" stroke:none;fill-rule:nonzero;fill:rgb(84.705883%,98.823529%,89.411765%);fill-opacity:1;" d="M 27.066406 24.734375 L 28 24.734375 L 28 25.667969 L 27.066406 25.667969 Z M 27.066406 24.734375 "/>
<path style=" stroke:none;fill-rule:nonzero;fill:rgb(84.705883%,98.823529%,89.411765%);fill-opacity:1;" d="M 25.199219 24.734375 L 26.132812 24.734375 L 26.132812 25.667969 L 25.199219 25.667969 Z M 25.199219 24.734375 "/>
<path style=" stroke:none;fill-rule:nonzero;fill:rgb(84.705883%,98.823529%,89.411765%);fill-opacity:1;" d="M 23.332031 24.734375 L 24.265625 24.734375 L 24.265625 25.667969 L 23.332031 25.667969 Z M 23.332031 24.734375 "/>
<path style=" stroke:none;fill-rule:nonzero;fill:rgb(84.705883%,98.823529%,89.411765%);fill-opacity:1;" d="M 21.464844 24.734375 L 22.398438 24.734375 L 22.398438 25.667969 L 21.464844 25.667969 Z M 21.464844 24.734375 "/>
<path style=" stroke:none;fill-rule:nonzero;fill:rgb(84.705883%,98.823529%,89.411765%);fill-opacity:1;" d="M 19.601562 24.734375 L 20.535156 24.734375 L 20.535156 25.667969 L 19.601562 25.667969 Z M 19.601562 24.734375 "/>
<path style=" stroke:none;fill-rule:nonzero;fill:rgb(84.705883%,98.823529%,89.411765%);fill-opacity:1;" d="M 17.734375 24.734375 L 18.667969 24.734375 L 18.667969 25.667969 L 17.734375 25.667969 Z M 17.734375 24.734375 "/>
<path style=" stroke:none;fill-rule:nonzero;fill:rgb(84.705883%,98.823529%,89.411765%);fill-opacity:1;" d="M 15.867188 24.734375 L 16.800781 24.734375 L 16.800781 25.667969 L 15.867188 25.667969 Z M 15.867188 24.734375 "/>
<path style=" stroke:none;fill-rule:nonzero;fill:rgb(84.705883%,98.823529%,89.411765%);fill-opacity:1;" d="M 11.199219 24.734375 L 12.132812 24.734375 L 12.132812 25.667969 L 11.199219 25.667969 Z M 11.199219 24.734375 "/>
<path style=" stroke:none;fill-rule:nonzero;fill:rgb(84.705883%,98.823529%,89.411765%);fill-opacity:1;" d="M 9.332031 24.734375 L 10.265625 24.734375 L 10.265625 25.667969 L 9.332031 25.667969 Z M 9.332031 24.734375 "/>
<path style=" stroke:none;fill-rule:nonzero;fill:rgb(84.705883%,98.823529%,89.411765%);fill-opacity:1;" d="M 7.464844 24.734375 L 8.398438 24.734375 L 8.398438 25.667969 L 7.464844 25.667969 Z M 7.464844 24.734375 "/>
<path style=" stroke:none;fill-rule:nonzero;fill:rgb(84.705883%,98.823529%,89.411765%);fill-opacity:1;" d="M 5.601562 24.734375 L 6.535156 24.734375 L 6.535156 25.667969 L 5.601562 25.667969 Z M 5.601562 24.734375 "/>
<path style=" stroke:none;fill-rule:nonzero;fill:rgb(84.705883%,98.823529%,89.411765%);fill-opacity:1;" d="M 3.734375 24.734375 L 4.667969 24.734375 L 4.667969 25.667969 L 3.734375 25.667969 Z M 3.734375 24.734375 "/>
<path style=" stroke:none;fill-rule:nonzero;fill:rgb(84.705883%,98.823529%,89.411765%);fill-opacity:1;" d="M 1.867188 24.734375 L 2.800781 24.734375 L 2.800781 25.667969 L 1.867188 25.667969 Z M 1.867188 24.734375 "/>
<path style=" stroke:none;fill-rule:nonzero;fill:rgb(84.705883%,98.823529%,89.411765%);fill-opacity:1;" d="M 0 24.734375 L 0.933594 24.734375 L 0.933594 25.667969 L 0 25.667969 Z M 0 24.734375 "/>
<path style=" stroke:none;fill-rule:nonzero;fill:rgb(84.705883%,98.823529%,89.411765%);fill-opacity:1;" d="M 3.734375 1.867188 L 4.667969 1.867188 L 4.667969 6.535156 L 3.734375 6.535156 Z M 3.734375 1.867188 "/>
<path style=" stroke:none;fill-rule:nonzero;fill:rgb(84.705883%,98.823529%,89.411765%);fill-opacity:1;" d="M 10.265625 1.867188 L 11.199219 1.867188 L 11.199219 6.535156 L 10.265625 6.535156 Z M 10.265625 1.867188 "/>
<path style=" stroke:none;fill-rule:nonzero;fill:rgb(84.705883%,98.823529%,89.411765%);fill-opacity:1;" d="M 3.734375 9.332031 L 4.667969 9.332031 L 4.667969 14 L 3.734375 14 Z M 3.734375 9.332031 "/>
<path style=" stroke:none;fill-rule:nonzero;fill:rgb(84.705883%,98.823529%,89.411765%);fill-opacity:1;" d="M 10.265625 9.332031 L 11.199219 9.332031 L 11.199219 14 L 10.265625 14 Z M 10.265625 9.332031 "/>
<path style=" stroke:none;fill-rule:nonzero;fill:rgb(84.705883%,98.823529%,89.411765%);fill-opacity:1;" d="M 3.734375 16.800781 L 4.667969 16.800781 L 4.667969 21.464844 L 3.734375 21.464844 Z M 3.734375 16.800781 "/>
<path style=" stroke:none;fill-rule:nonzero;fill:rgb(84.705883%,98.823529%,89.411765%);fill-opacity:1;" d="M 10.265625 16.800781 L 11.199219 16.800781 L 11.199219 21.464844 L 10.265625 21.464844 Z M 10.265625 16.800781 "/>
<path style=" stroke:none;fill-rule:nonzero;fill:rgb(84.705883%,98.823529%,89.411765%);fill-opacity:1;" d="M 5.601562 1.867188 L 9.332031 1.867188 L 9.332031 2.800781 L 5.601562 2.800781 Z M 5.601562 1.867188 "/>
<path style=" stroke:none;fill-rule:nonzero;fill:rgb(84.705883%,98.823529%,89.411765%);fill-opacity:1;" d="M 5.601562 3.734375 L 9.332031 3.734375 L 9.332031 4.667969 L 5.601562 4.667969 Z M 5.601562 3.734375 "/>
<path style=" stroke:none;fill-rule:nonzero;fill:rgb(84.705883%,98.823529%,89.411765%);fill-opacity:1;" d="M 5.601562 5.601562 L 9.332031 5.601562 L 9.332031 6.535156 L 5.601562 6.535156 Z M 5.601562 5.601562 "/>
<path style=" stroke:none;fill-rule:nonzero;fill:rgb(84.705883%,98.823529%,89.411765%);fill-opacity:1;" d="M 5.601562 9.332031 L 9.332031 9.332031 L 9.332031 10.265625 L 5.601562 10.265625 Z M 5.601562 9.332031 "/>
<path style=" stroke:none;fill-rule:nonzero;fill:rgb(84.705883%,98.823529%,89.411765%);fill-opacity:1;" d="M 5.601562 11.199219 L 9.332031 11.199219 L 9.332031 12.132812 L 5.601562 12.132812 Z M 5.601562 11.199219 "/>
<path style=" stroke:none;fill-rule:nonzero;fill:rgb(84.705883%,98.823529%,89.411765%);fill-opacity:1;" d="M 5.601562 13.066406 L 9.332031 13.066406 L 9.332031 14 L 5.601562 14 Z M 5.601562 13.066406 "/>
<path style=" stroke:none;fill-rule:nonzero;fill:rgb(84.705883%,98.823529%,89.411765%);fill-opacity:1;" d="M 5.601562 16.800781 L 9.332031 16.800781 L 9.332031 17.734375 L 5.601562 17.734375 Z M 5.601562 16.800781 "/>
<path style=" stroke:none;fill-rule:nonzero;fill:rgb(84.705883%,98.823529%,89.411765%);fill-opacity:1;" d="M 5.601562 18.667969 L 9.332031 18.667969 L 9.332031 19.601562 L 5.601562 19.601562 Z M 5.601562 18.667969 "/>
<path style=" stroke:none;fill-rule:nonzero;fill:rgb(84.705883%,98.823529%,89.411765%);fill-opacity:1;" d="M 5.601562 20.535156 L 9.332031 20.535156 L 9.332031 21.464844 L 5.601562 21.464844 Z M 5.601562 20.535156 "/>
<path style=" stroke:none;fill-rule:nonzero;fill:rgb(84.705883%,98.823529%,89.411765%);fill-opacity:1;" d="M 16.800781 1.867188 L 17.734375 1.867188 L 17.734375 6.535156 L 16.800781 6.535156 Z M 16.800781 1.867188 "/>
<path style=" stroke:none;fill-rule:nonzero;fill:rgb(84.705883%,98.823529%,89.411765%);fill-opacity:1;" d="M 16.800781 9.332031 L 17.734375 9.332031 L 17.734375 14 L 16.800781 14 Z M 16.800781 9.332031 "/>
<path style=" stroke:none;fill-rule:nonzero;fill:rgb(84.705883%,98.823529%,89.411765%);fill-opacity:1;" d="M 16.800781 16.800781 L 17.734375 16.800781 L 17.734375 21.464844 L 16.800781 21.464844 Z M 16.800781 16.800781 "/>
<path style=" stroke:none;fill-rule:nonzero;fill:rgb(84.705883%,98.823529%,89.411765%);fill-opacity:1;" d="M 12.132812 1.867188 L 15.867188 1.867188 L 15.867188 2.800781 L 12.132812 2.800781 Z M 12.132812 1.867188 "/>
<path style=" stroke:none;fill-rule:nonzero;fill:rgb(84.705883%,98.823529%,89.411765%);fill-opacity:1;" d="M 12.132812 3.734375 L 15.867188 3.734375 L 15.867188 4.667969 L 12.132812 4.667969 Z M 12.132812 3.734375 "/>
<path style=" stroke:none;fill-rule:nonzero;fill:rgb(84.705883%,98.823529%,89.411765%);fill-opacity:1;" d="M 12.132812 5.601562 L 15.867188 5.601562 L 15.867188 6.535156 L 12.132812 6.535156 Z M 12.132812 5.601562 "/>
<path style=" stroke:none;fill-rule:nonzero;fill:rgb(84.705883%,98.823529%,89.411765%);fill-opacity:1;" d="M 12.132812 9.332031 L 15.867188 9.332031 L 15.867188 10.265625 L 12.132812 10.265625 Z M 12.132812 9.332031 "/>
<path style=" stroke:none;fill-rule:nonzero;fill:rgb(84.705883%,98.823529%,89.411765%);fill-opacity:1;" d="M 12.132812 11.199219 L 15.867188 11.199219 L 15.867188 12.132812 L 12.132812 12.132812 Z M 12.132812 11.199219 "/>
<path style=" stroke:none;fill-rule:nonzero;fill:rgb(84.705883%,98.823529%,89.411765%);fill-opacity:1;" d="M 12.132812 13.066406 L 15.867188 13.066406 L 15.867188 14 L 12.132812 14 Z M 12.132812 13.066406 "/>
<path style=" stroke:none;fill-rule:nonzero;fill:rgb(84.705883%,98.823529%,89.411765%);fill-opacity:1;" d="M 12.132812 16.800781 L 15.867188 16.800781 L 15.867188 17.734375 L 12.132812 17.734375 Z M 12.132812 16.800781 "/>
<path style=" stroke:none;fill-rule:nonzero;fill:rgb(84.705883%,98.823529%,89.411765%);fill-opacity:1;" d="M 12.132812 18.667969 L 15.867188 18.667969 L 15.867188 19.601562 L 12.132812 19.601562 Z M 12.132812 18.667969 "/>
<path style=" stroke:none;fill-rule:nonzero;fill:rgb(84.705883%,98.823529%,89.411765%);fill-opacity:1;" d="M 12.132812 20.535156 L 15.867188 20.535156 L 15.867188 21.464844 L 12.132812 21.464844 Z M 12.132812 20.535156 "/>
<path style=" stroke:none;fill-rule:nonzero;fill:rgb(84.705883%,98.823529%,89.411765%);fill-opacity:1;" d="M 21.464844 1.867188 C 20.160156 1.867188 19.132812 2.894531 19.132812 4.199219 C 19.132812 5.507812 20.160156 6.535156 21.464844 6.535156 C 22.773438 6.535156 23.800781 5.507812 23.800781 4.199219 C 23.800781 2.894531 22.773438 1.867188 21.464844 1.867188 Z M 21.464844 5.601562 C 20.671875 5.601562 20.066406 4.992188 20.066406 4.199219 C 20.066406 3.40625 20.671875 2.800781 21.464844 2.800781 C 22.261719 2.800781 22.867188 3.40625 22.867188 4.199219 C 22.867188 4.992188 22.261719 5.601562 21.464844 5.601562 Z M 21.464844 5.601562 "/>
<path style=" stroke:none;fill-rule:nonzero;fill:rgb(84.705883%,98.823529%,89.411765%);fill-opacity:1;" d="M 21.464844 9.332031 C 20.160156 9.332031 19.132812 10.359375 19.132812 11.667969 C 19.132812 12.972656 20.160156 14 21.464844 14 C 22.773438 14 23.800781 12.972656 23.800781 11.667969 C 23.800781 10.359375 22.773438 9.332031 21.464844 9.332031 Z M 21.464844 13.066406 C 20.671875 13.066406 20.066406 12.460938 20.066406 11.667969 C 20.066406 10.875 20.671875 10.265625 21.464844 10.265625 C 22.261719 10.265625 22.867188 10.875 22.867188 11.667969 C 22.867188 12.460938 22.261719 13.066406 21.464844 13.066406 Z M 21.464844 13.066406 "/>
<path style=" stroke:none;fill-rule:nonzero;fill:rgb(84.705883%,98.823529%,89.411765%);fill-opacity:1;" d="M 21.464844 16.800781 C 20.160156 16.800781 19.132812 17.828125 19.132812 19.132812 C 19.132812 20.441406 20.160156 21.464844 21.464844 21.464844 C 22.773438 21.464844 23.800781 20.441406 23.800781 19.132812 C 23.800781 17.828125 22.773438 16.800781 21.464844 16.800781 Z M 21.464844 20.535156 C 20.671875 20.535156 20.066406 19.925781 20.066406 19.132812 C 20.066406 18.339844 20.671875 17.734375 21.464844 17.734375 C 22.261719 17.734375 22.867188 18.339844 22.867188 19.132812 C 22.867188 19.925781 22.261719 20.535156 21.464844 20.535156 Z M 21.464844 20.535156 "/>
<path style=" stroke:none;fill-rule:nonzero;fill:rgb(84.705883%,98.823529%,89.411765%);fill-opacity:1;" d="M 21 3.734375 L 21.933594 3.734375 L 21.933594 4.667969 L 21 4.667969 Z M 21 3.734375 "/>
<path style=" stroke:none;fill-rule:nonzero;fill:rgb(84.705883%,98.823529%,89.411765%);fill-opacity:1;" d="M 21 11.199219 L 21.933594 11.199219 L 21.933594 12.132812 L 21 12.132812 Z M 21 11.199219 "/>
<path style=" stroke:none;fill-rule:nonzero;fill:rgb(84.705883%,98.823529%,89.411765%);fill-opacity:1;" d="M 21 18.667969 L 21.933594 18.667969 L 21.933594 19.601562 L 21 19.601562 Z M 21 18.667969 "/>
</g>
</svg>
