<svg xmlns="http://www.w3.org/2000/svg" width="1024" height="1024">
<path fill="#ffffff00" d="M0 0h1024v1024H0V0Z"/>
<path fill="#D4FFE0" d="M363.75 146.75c7.33 5.28 11.93 11.42 14.25 20.25.06 2 .08 4 0 6l1.77-.05c2.7-.06 5.4-.1 8.1-.14l2.79-.07c8.8-.1 17.48 1.36 24.34 7.26 5 6.55 5 6.55 5 11l2.24-.03c7-.1 14-.18 21-.23 3.6-.02 7.2-.06 10.8-.12 3.47-.05 6.96-.08 10.44-.1 1.95 0 3.9-.05 5.86-.09 12.38 0 21.64 3.63 30.54 12.24 2.92 3.2 5.28 6.4 7.12 10.33l1.54 3.27c2.23 6.04 1.88 12.2 1.85 18.56l.01 4.22c.02 3.85.01 7.7 0 11.55l.02 12.47c.02 8.13.02 16.27.02 24.4V315.93c.02 17.95.02 35.9 0 53.84 0 16.4 0 32.81.03 49.22.03 16.86.04 33.71.03 50.57l.01 28.38c.02 8.05.02 16.1 0 24.16v12.32c.02 3.77.02 7.53 0 11.3 0 2 0 3.99.02 5.98-.1 12.22-3.35 21.79-11.65 30.87-9.72 9.37-22.11 10.75-35.03 10.7l-3.27.02-10.78.01-7.75.02c-6.28.02-12.55.02-18.83.02-5.1 0-10.21 0-15.32.02l-43.48.02h-4.73c-12.66 0-25.32.02-37.98.05-13.02.03-26.04.04-39.06.04-7.3 0-14.6 0-21.9.02-6.87.02-13.73.02-20.6 0l-7.55.02c-3.44.02-6.88.01-10.32 0l-3 .03c-11.21-.11-20.83-4.2-29.28-11.53-7.43-7.9-11.12-15.96-11.13-26.87l-.01-3.58v-8.09c-.02-3.82-.02-7.65-.02-11.47 0-4.12 0-8.25-.02-12.37a26584.33 26584.33 0 0 1-.03-43.94l-.03-46.78v-6.06a1994199.52 1994199.52 0 0 0 0-9.12c0-16.3-.02-32.58-.05-48.87-.02-16.73-.03-33.45-.03-50.18l-.03-28.17c-.01-8-.02-16-.01-23.99l-.01-12.23v-11.22c0-1.98 0-3.96-.02-5.95.06-12.05 2.72-22.82 11.05-31.93 9.98-9.06 20.93-10.47 33.93-10.6l3.94-.05c3.43-.05 6.87-.1 10.3-.13l10.54-.14c6.88-.1 13.75-.18 20.63-.26l.78-1.65 1.06-2.18 1.03-2.15c3.13-5.6 8.64-8.27 14.5-10.3 8.06-1.6 16.45-1.02 24.63-.72l.14-1.79c.86-9.12 4.02-16.36 10.83-22.67 12.56-9.5 27.43-10.16 40.78-1.79Z"/>
<path fill="#D4FFE0" d="m588.36 128.87 2.72-.02h6.15a5136.86 5136.86 0 0 1 18.13-.05 16634 16634 0 0 1 22.72-.04l10.7-.01a43178.66 43178.66 0 0 1 44.8-.05h2.33c12.38 0 24.77-.03 37.16-.06 12.72-.04 25.44-.05 38.16-.06a6539 6539 0 0 0 21.42-.03c6.72-.03 13.44-.03 20.15-.02 2.47 0 4.94 0 7.4-.02 3.37-.02 6.73-.01 10.1 0l2.95-.03c7.28.07 12.83 1.6 18.06 6.83 4.65 7.41 5.12 13.12 5.08 21.76l.01 3.68c.02 3.36.01 6.71 0 10.07l.02 10.87c.02 7.1.02 14.2.02 21.3v24.79c.02 15.65.02 31.29 0 46.93 0 14.3 0 28.62.03 42.93.03 14.7.04 29.39.03 44.08l.01 24.75c.02 7.02.02 14.04 0 21.06v10.75c.02 3.88 0 7.77 0 11.65l.02 3.43c-.1 9.69-3.08 14.42-9.66 21.58l-2.63 2.9C842 460 842 460 840 460v2c-1.42 1.4-1.42 1.4-3.42 3.05-4.87 4.14-9.34 8.6-13.83 13.14a396758651.3 396758651.3 0 0 1-21.5 21.62l-2.45 2.48a221.34 221.34 0 0 1-13.16 12.28c-2.66 2.32-5 4.93-7.39 7.54-8.46 7.12-17.24 6.47-27.7 6.42l-5.34.03c-4.81.02-9.63.02-14.44.01l-12.08.01c-9.5.02-19 .01-28.5 0-9.79-.02-19.58 0-29.36.03-8.42.02-16.83.03-25.25.02-5.02 0-10.04 0-15.06.02-4.72.02-9.45.01-14.17-.01l-5.18.01c-9.16.06-17.5.1-25.17-5.65-8.03-8.2-7.3-18.9-7.27-29.69l-.01-4.5-.01-12.31-.02-13.3c-.02-8.67-.02-17.35-.02-26.03 0-7.05 0-14.1-.02-21.16l-.02-60V349.48c0-17.5-.02-35-.05-52.5-.03-17.96-.04-35.93-.04-53.9 0-10.08 0-20.17-.02-30.25-.02-8.59-.03-17.17-.01-25.76l-.01-13.14c-.02-4-.02-8.02 0-12.03l-.01-4.35c-.07-9.13.24-15.77 6.55-22.83l2.02-1.66 2.04-1.71c3.05-2.16 5.63-2.48 9.26-2.48Z"/>
<path fill="#D4FFE0" d="M617.76 561.87c2.69 1.26 5.37 2.54 8.05 3.82l5.67 2.64c2.85 1.31 5.7 2.64 8.54 3.96a767.66 767.66 0 0 0 23.36 10.4 2689.21 2689.21 0 0 1 37.17 16.35A1092.56 1092.56 0 0 0 727 610.5c2.6 1.1 5.2 2.18 7.81 3.25l3.5 1.48 3.05 1.26c4.22 2.41 6.86 6.03 8.64 10.51.24 3.18.24 3.18.23 6.97v2.1c0 2.29-.02 4.57-.03 6.85l-.01 4.76-.05 12.5-.04 12.78c-.02 8.34-.06 16.7-.1 25.04 3.37.7 3.37.7 7 1 2.84-2.2 2.84-2.2 5.13-5.31 5.38-6.72 5.38-6.72 9.87-7.69 6.47.2 11.12 2.13 16.75 5.19l2.25 1.13c4.68 2.5 7.58 4.77 10 9.68.43 2.85.43 2.85.31 5.63l-.07 2.78A39.18 39.18 0 0 1 800 717c-.54 4.77-.54 4.77 1.5 8.81L803 727v2l2.34-.44c15.18-2.7 15.18-2.7 20.91-.06 3.52 3.2 4.97 6.15 6.75 10.5l1.36 3.13c4.68 11.31 4.68 11.31 3.64 17.87-2.78 6.5-8.98 9.77-15 13h-2l-1 10 2.64.76c3.53 1.3 6.08 2.9 9.11 5.12l2.86 2.05c3.43 2.97 4.24 4.66 4.71 9.16-.42 5.14-1.82 9.66-3.44 14.54l-.86 2.8c-1.94 5.9-3.6 9.38-9.02 12.57-7 1.15-14.36.53-21-2-1.42 2.65-2.66 5-3 8 1.2 2.54 1.2 2.54 2.94 5.13 3.02 5.27 4.58 9.84 3.06 15.87-2.9 5.44-6.73 8.46-11.69 11.88l-2.03 1.5c-5.04 3.5-9.16 4.68-15.28 3.62-2.7-1.17-2.7-1.17-4.81-2.75l-2.26-1.65c-1.93-1.6-1.93-1.6-4.18-3.91-2.18-2.1-3.82-2.2-6.75-2.69l-.33 2.6c-2.09 15.05-2.09 15.05-7.03 19.55-4.74 3-10.22 2.43-15.64 2.35l-3.23.05c-4.65-.03-8.07-.25-12.37-2.1-3-3.05-3.92-5.95-4.77-10.01l-.5-2.04A35.23 35.23 0 0 1 716 865c-2.76-.84-2.76-.84-6-1-2.66 1.5-2.66 1.5-5 3.75-4.6 3.93-8.18 6.76-14.25 7.81-5.48-.82-9.25-3.44-13.75-6.56l-2.54-1.75c-5.61-4.1-8.85-7.33-9.96-14.44.6-4.61 2.29-8.05 4.4-12.16 1.17-2.81 1.19-4.65 1.1-7.65l-3.14 1.54a2591.95 2591.95 0 0 1-61.22 29.22c-2.4 1.13-4.77 2.32-7.13 3.55-4.45 2.14-7.67 2.68-12.51 1.69-4.22-1.62-8.07-3.78-12-6l-3.75-2.06c-2.95-1.63-5.9-3.27-8.84-4.92a3624.43 3624.43 0 0 0-57.2-31.3 11792.88 11792.88 0 0 1-41.27-22.22l-2.65-1.42a220.33 220.33 0 0 1-12.16-7.05l-2.12-1.32c-3.58-3.04-5.78-6.22-6.51-10.89v-3.47l-.02-1.95c-.01-2.14 0-4.27.02-6.41l-.02-4.62c-.01-4.17 0-8.35.02-12.52v-13.1c0-7.34.01-14.67.03-22 .03-8.48.03-16.96.02-25.44-.01-8.16 0-16.32.01-24.48v-10.4c0-4.1 0-8.18.03-12.27v-4.5c0-2.04 0-4.1.02-6.14l.01-3.47c.5-4.02 1.91-6.77 4.98-9.44 6.07-3.66 12.47-6.32 19.03-8.98l8.33-3.45 2.32-.96c10.2-4.23 20.33-8.58 30.48-12.92a6987.29 6987.29 0 0 1 60.29-25.45l2.47-1.03 4.75-1.98c3.74-1.55 7.43-3.15 11.08-4.9 13.4-6.35 21-6.21 34.4-.07Z"/>
<path fill="#323232" d="M363.75 146.75c7.33 5.28 11.93 11.42 14.25 20.25.06 2 .08 4 0 6l1.77-.05c2.7-.06 5.4-.1 8.1-.14l2.79-.07c8.8-.1 17.48 1.36 24.34 7.26 5 6.55 5 6.55 5 11l2.24-.03c7-.1 14-.18 21-.23 3.6-.02 7.2-.06 10.8-.12 3.47-.05 6.96-.08 10.44-.1 1.95 0 3.9-.05 5.86-.09 12.38 0 21.64 3.63 30.54 12.24 2.92 3.2 5.28 6.4 7.12 10.33l1.54 3.27c2.23 6.04 1.88 12.2 1.85 18.56l.01 4.22c.02 3.85.01 7.7 0 11.55l.02 12.47c.02 8.13.02 16.27.02 24.4V315.93c.02 17.95.02 35.9 0 53.84 0 16.4 0 32.81.03 49.22.03 16.86.04 33.71.03 50.57l.01 28.38c.02 8.05.02 16.1 0 24.16v12.32c.02 3.77.02 7.53 0 11.3 0 2 0 3.99.02 5.98-.1 12.22-3.35 21.79-11.65 30.87-9.72 9.37-22.11 10.75-35.03 10.7l-3.27.02-10.78.01-7.75.02c-6.28.02-12.55.02-18.83.02-5.1 0-10.21 0-15.32.02l-43.48.02h-4.73c-12.66 0-25.32.02-37.98.05-13.02.03-26.04.04-39.06.04-7.3 0-14.6 0-21.9.02-6.87.02-13.73.02-20.6 0l-7.55.02c-3.44.02-6.88.01-10.32 0l-3 .03c-11.21-.11-20.83-4.2-29.28-11.53-7.43-7.9-11.12-15.96-11.13-26.87l-.01-3.58v-8.09c-.02-3.82-.02-7.65-.02-11.47 0-4.12 0-8.25-.02-12.37a26584.33 26584.33 0 0 1-.03-43.94l-.03-46.78v-6.06a1994199.52 1994199.52 0 0 0 0-9.12c0-16.3-.02-32.58-.05-48.87-.02-16.73-.03-33.45-.03-50.18l-.03-28.17c-.01-8-.02-16-.01-23.99l-.01-12.23v-11.22c0-1.98 0-3.96-.02-5.95.06-12.05 2.72-22.82 11.05-31.93 9.98-9.06 20.93-10.47 33.93-10.6l3.94-.05c3.43-.05 6.87-.1 10.3-.13l10.54-.14c6.88-.1 13.75-.18 20.63-.26l.78-1.65 1.06-2.18 1.03-2.15c3.13-5.6 8.64-8.27 14.5-10.3 8.06-1.6 16.45-1.02 24.63-.72l.14-1.79c.86-9.12 4.02-16.36 10.83-22.67 12.56-9.5 27.43-10.16 40.78-1.79ZM203 219c-4.12 5.94-3.42 12.38-3.38 19.32 0 1.38 0 2.75-.02 4.13V265.97c-.02 7.97-.01 15.94 0 23.91v27.84c-.01 17.56 0 35.12.01 52.68.02 15.07.01 30.14 0 45.2a36346.12 36346.12 0 0 0-.01 58.09v22.18c-.02 7.9-.02 15.78 0 23.66v12.07l.01 11.05-.01 5.89c.05 7.5.67 12.18 5.59 18.09 6.81 5.75 12.76 6.96 21.55 6.87l3.2.02c3.55.01 7.08 0 10.62-.02l7.62.02c6.17.01 12.35 0 18.52-.01 7.2-.02 14.4-.01 21.6-.01 12.83 0 25.68 0 38.52-.03 12.45-.03 24.9-.03 37.36-.02a21379.5 21379.5 0 0 0 45.06-.01H426.43c6.75 0 13.5 0 20.25-.03h7.43c3.39 0 6.77 0 10.15-.02l2.97.02c6.75-.07 12.71-.8 18.05-5.35l1.66-2.06 1.71-2.06c2.41-3.47 2.48-6.4 2.48-10.5l.02-3.53v-8.02c.02-3.79.02-7.57.02-11.36l.03-12.24.04-29.57.01-13.92a73048.55 73048.55 0 0 0 .05-58.29v-3.01c0-16.12.03-32.25.06-48.37.04-16.55.05-33.1.06-49.64 0-9.3 0-18.59.03-27.88.03-7.91.03-15.83.02-23.74 0-4.04 0-8.08.02-12.11.02-3.7.02-7.4 0-11.1l.03-5.9c-.05-7.07-.67-11.77-4.52-17.76-4.66-4.54-9.16-6.26-15.62-6.23h-3.33l-3.57.03-3.68.01a11215.73 11215.73 0 0 1-19.5.09c-6.43.02-12.86.06-19.3.1l-.18 2.89-.25 3.8-.24 3.77c-.74 7.92-3.15 14.32-9.33 19.54-7.04 3.88-13.66 4.58-21.56 4.52l-3.37.02c-3.64.02-7.28 0-10.92 0h-7.64c-5.32 0-10.64 0-15.96-.02-6.13-.02-12.27-.01-18.4 0-5.93.03-11.85.03-17.78.02h-7.53c-3.51.02-7.02 0-10.53-.02l-3.13.02c-7.76-.09-12.93-1.88-18.93-6.79-5.35-6.54-6.5-11.36-6.86-19.55l-.12-2.39L269 211c-7.72-.08-15.45-.13-23.17-.16l-7.88-.07c-3.78-.03-7.55-.05-11.33-.06l-3.55-.05c-8.85 0-14.12 1.42-20.07 8.34Z"/>
<path fill="#343434" d="m588.36 128.87 2.72-.02h6.15a5136.86 5136.86 0 0 1 18.13-.05 16634 16634 0 0 1 22.72-.04l10.7-.01a43178.66 43178.66 0 0 1 44.8-.05h2.33c12.38 0 24.77-.03 37.16-.06 12.72-.04 25.44-.05 38.16-.06a6539 6539 0 0 0 21.42-.03c6.72-.03 13.44-.03 20.15-.02 2.47 0 4.94 0 7.4-.02 3.37-.02 6.73-.01 10.1 0l2.95-.03c7.28.07 12.83 1.6 18.06 6.83 4.65 7.41 5.12 13.12 5.08 21.76l.01 3.68c.02 3.36.01 6.71 0 10.07l.02 10.87c.02 7.1.02 14.2.02 21.3v24.79c.02 15.65.02 31.29 0 46.93 0 14.3 0 28.62.03 42.93.03 14.7.04 29.39.03 44.08l.01 24.75c.02 7.02.02 14.04 0 21.06v10.75c.02 3.88 0 7.77 0 11.65l.02 3.43c-.1 9.69-3.08 14.42-9.66 21.58l-2.63 2.9C842 460 842 460 840 460v2c-1.42 1.4-1.42 1.4-3.42 3.05-4.87 4.14-9.34 8.6-13.83 13.14a396758651.3 396758651.3 0 0 1-21.5 21.62l-2.45 2.48a221.34 221.34 0 0 1-13.16 12.28c-2.66 2.32-5 4.93-7.39 7.54-8.46 7.12-17.24 6.47-27.7 6.42l-5.34.03c-4.81.02-9.63.02-14.44.01l-12.08.01c-9.5.02-19 .01-28.5 0-9.79-.02-19.58 0-29.36.03-8.42.02-16.83.03-25.25.02-5.02 0-10.04 0-15.06.02-4.72.02-9.45.01-14.17-.01l-5.18.01c-9.16.06-17.5.1-25.17-5.65-8.03-8.2-7.3-18.9-7.27-29.69l-.01-4.5-.01-12.31-.02-13.3c-.02-8.67-.02-17.35-.02-26.03 0-7.05 0-14.1-.02-21.16l-.02-60V349.48c0-17.5-.02-35-.05-52.5-.03-17.96-.04-35.93-.04-53.9 0-10.08 0-20.17-.02-30.25-.02-8.59-.03-17.17-.01-25.76l-.01-13.14c-.02-4-.02-8.02 0-12.03l-.01-4.35c-.07-9.13.24-15.77 6.55-22.83l2.02-1.66 2.04-1.71c3.05-2.16 5.63-2.48 9.26-2.48ZM589 149c-.1 2.99-.12 5.95-.1 8.94v2.9l.03 9.72a19859.14 19859.14 0 0 1 .05 24.33l.05 20.52a68543.78 68543.78 0 0 0 .3 109.5l.04 10.7.01 2.68a113769.04 113769.04 0 0 1 .26 88.4 35487.06 35487.06 0 0 1 .13 46.38l.03 10.83.04 11.71v3.5l.02 3.13v2.73c-.08 2.03-.08 2.03 1.14 3.03 2.08.1 4.15.12 6.23.12h13.42l12.96-.02h13.53l25.64-.03 29.18-.02L752 508l.02-2.34c.06-7.32.13-14.63.22-21.94.04-3.76.08-7.52.1-11.28l.12-10.89.04-4.14c.07-14.23.07-14.23 3.5-19.41 4.58-2.85 8.13-3.39 13.47-3.43l2.2-.03c2.36-.03 4.73-.04 7.1-.05l4.96-.06 12.99-.1 13.27-.12c8.67-.09 17.34-.15 26.01-.21a318586.85 318586.85 0 0 0 .05-121.23v-2.57a117665.6 117665.6 0 0 1 .04-83.6 33837.07 33837.07 0 0 1 .02-44.05v-10.34l.01-11.19v-8.95c.01-2.13.01-2.13-1.12-4.07a238848.07 238848.07 0 0 0-104.62-.05h-2.22a87678.7 87678.7 0 0 1-72.15-.04 25216.14 25216.14 0 0 1-39.83-.02 4757.68 4757.68 0 0 1-16.76-.01h-2.88c-4.1-.42-4.1-.42-7.54 1.12Z"/>
<path fill="#D4FFE0" d="M730 643a161515.32 161515.32 0 0 1 .57 60.17c.53 54.84.53 54.84.43 78.83-46.09 22.58-46.09 22.58-62.78 30.51-3.87 1.84-7.74 3.7-11.6 5.57a2306.12 2306.12 0 0 1-39.33 18.6 373.5 373.5 0 0 0-13.97 6.7C600 845 600 845 598 845V705c19.53-10.34 19.53-10.34 26.22-13.24l2.28-1 7-3.07a7012.9 7012.9 0 0 0 13.66-6c4.28-1.88 8.56-3.78 12.84-5.69l.03 3.04c.04 3.74.1 7.48.18 11.21.03 1.62.05 3.23.06 4.85.02 2.32.07 4.65.12 6.97v2.18c.14 4.84 1.17 7.35 4.61 10.75 2.82 1.41 4.87 1.25 8 1 3.71-1.76 3.71-1.76 6-5 .12-1.42.18-2.84.2-4.27l.07-2.67.05-2.88.06-2.95a4307.63 4307.63 0 0 0 .31-15.69L680 667a620.2 620.2 0 0 1 39.18-19.51C728.84 643 728.84 643 730 643ZM459 645a90.52 90.52 0 0 1 17.86 7.57 5192.44 5192.44 0 0 0 7.6 4.08 769.91 769.91 0 0 0 14.38 7.44 10214.7 10214.7 0 0 0 12.7 6.5 64927.8 64927.8 0 0 0 47.3 24.19c1 .5 1 .5 2.01 1.03 5.78 2.96 11.44 6.08 17.15 9.19v137c-18.29-9.15-18.29-9.15-26.5-13.69l-5.66-3.1-2.9-1.6c-4.97-2.72-9.95-5.41-14.94-8.11-8.57-4.64-17.13-9.3-25.68-13.97-4.89-2.67-9.78-5.32-14.68-7.96l-3.23-1.74-6.12-3.3-2.84-1.52-2.46-1.33L470 784l-2.52-.9c-3.19-1.37-5.14-2.53-7.48-5.1-1.52-5.9-1.3-11.7-1.2-17.75 0-1.79 0-3.58-.02-5.38-.02-4.78.02-9.57.07-14.35.04-4.92.03-9.83.02-14.75 0-8.66.03-17.31.09-25.97.05-7.98.04-15.97.01-23.95-.03-10.29-.03-20.57.03-30.85Z"/>
<path fill="#353636" d="M257 612c3.44 2.12 4.72 3.15 6 7 .16 2.81.28 5.62.38 8.44 1.88 41.37 15.79 81.43 46.74 109.89C325 750.56 343.72 760.2 363 765l2.86.73c5.74 1.32 11.26 1.45 17.14 1.27l-2.77-2.7-3.6-3.55-1.83-1.78-1.76-1.74-1.62-1.58c-2.63-3.05-3.42-5.03-3.42-9.09 1.3-4.61 2.97-6.05 7-8.56 3.83-.72 5.42-.34 8.77 1.64a82.06 82.06 0 0 1 9.84 8.7l1.83 1.83 3.81 3.82a5004.87 5004.87 0 0 1 11.3 11.28c7.07 7.16 7.07 7.16 7.77 11.92-.6 6.78-3.45 9.96-8.38 14.43l-2.08 1.98a275.24 275.24 0 0 1-11.96 10.71c-3.38 3-6.47 6.3-9.6 9.55-3.04 2.83-5.13 4-9.24 4.51-3.8-.46-5.35-1.73-8.06-4.37-1.65-3.3-1.76-6.45-1-10 1.97-3.05 4.4-5.48 7-8l1.73-1.84A97.18 97.18 0 0 1 381 790h2v-2l-3.91.1c-33.9-.05-66.62-20.19-90.09-43.1l-1.71-1.63c-30.58-29.66-43.94-76.04-44.73-117.56l-.07-2.2c.02-3.58.44-5.5 2.41-8.54 3.6-3.56 7.2-3.76 12.1-3.07Z"/>
<path fill="#D4FFE0" d="m545.33 608.71 1.85.85a4117.3 4117.3 0 0 0 17.35 8 3795.42 3795.42 0 0 0 34.45 15.65c6.8 3.08 13.58 6.15 20.39 9.2l2.68 1.2 5 2.25c8.04 3.6 16 7.36 23.95 11.14v2c-7.2 3.36-14.42 6.71-21.63 10.05a1892.6 1892.6 0 0 0-13.1 6.12c-2.98 1.4-5.97 2.8-8.96 4.18l-4.35 2.06c-2.04.97-4.09 1.92-6.14 2.86l-3.55 1.67c-5.38 1.74-9.29.3-14.22-2.1l-2.79-1.33-2.95-1.45-3.1-1.5a643.4 643.4 0 0 1-20.93-10.72A752.86 752.86 0 0 0 530 659c-9.55-4.75-19.01-9.64-28.43-14.64-5.08-2.68-10.17-5.33-15.26-7.99l-3.1-1.61L476 631v-2a55137.07 55137.07 0 0 1 41.9-17.87l3.53-1.51 3.27-1.4 2.89-1.23c6.81-2.8 11.2-1.31 17.74 1.72Z"/>
<path fill="#333" d="m778.53 185.4 2.5-.03h5.23c2.67 0 5.33-.04 7.99-.1h5.09l2.4-.05c4.3.07 5.84.43 9.26 3.3 2.65 3.8 2.7 7.46 2.63 11.98v2.43c0 1.69 0 3.37-.03 5.06-.04 2.57-.02 5.14 0 7.71l-.03 4.93.01 2.32c-.1 4.96-1.02 7.57-4.58 11.05-3.14 1.57-5.54 1.35-9 1-4.22-2.82-5.33-5.51-6.31-10.31-.25-1.56-.49-3.12-.69-4.69-2.2 2.16-4.38 4.33-6.56 6.5l-1.85 1.82c-3.14 3.12-6.16 6.3-9.05 9.65-4.27 4.94-8.92 9.46-13.58 14.03-3.2 3.16-6.3 6.34-9.24 9.76a277.37 277.37 0 0 1-13.75 14.5 3169.4 3169.4 0 0 1-7.6 7.7l-2.69 2.72c-3.73 3.23-6.97 5.19-11.93 5.57-5.82-1.94-9.46-5.98-13.75-10.25l-2.14-2.13a930.66 930.66 0 0 1-3.93-3.97c-2.53-2.49-5.2-4.78-7.9-7.1-3.5-3.1-6.76-6.45-10.03-9.8l-2.12 2.12c-2.45 2.46-4.92 4.9-7.38 7.36a8058.38 8058.38 0 0 0-10.71 10.66c-8.95 8.86-8.95 8.86-17.38 18.22a127.36 127.36 0 0 1-6.72 7.08l-2.55 2.56c-3.5 3.27-6.21 3.46-10.87 3.41-2.62-.47-3.56-1.08-5.33-3.04-2.14-3.71-2.4-5.18-1.94-9.37 4.35-7.49 11.4-13.63 17.56-19.63a244.3 244.3 0 0 0 14.78-15.48c2.74-3.11 5.7-6 8.66-8.89 3.82-3.76 7.55-7.51 11-11.63 3.81-4.42 6.98-7.01 12.88-8.06 9.86.6 19.37 14.93 26 21.75l4.76 4.84 1.45 1.5c2.52 2.54 4.29 4.31 7.91 4.6 1.95-1.22 1.95-1.22 3.74-3.16l2.17-2.16 2.33-2.4 2.42-2.43c2.56-2.58 5.1-5.19 7.65-7.79l5.12-5.16c9.77-9.86 9.77-9.86 19.06-20.17 2.26-2.58 4.68-4.96 7.13-7.35A120.9 120.9 0 0 0 779 205l-2.05-.23c-7.24-1.06-7.24-1.06-10.64-4.46-1.6-4.05-1.55-6.14-.31-10.31 3.32-4.72 7.16-4.61 12.53-4.6Z"/>
<path fill="#D4FFE0" d="m775 706 6 2c.8 3.29 1.1 4.71 0 8-.9 5.94-1.1 10.96 1.8 16.35A85.33 85.33 0 0 0 790 741l2.66 2.82c4.64 3.03 8.3 2.74 13.72 2.5l2.8-.08c2.28-.05 4.55-.14 6.82-.24 1.5 3.37 2 5.2 2 9-2.05 1.5-2.05 1.5-4.75 2.88-5.11 2.86-8.1 5.26-9.82 11.04-.75 3.63-.7 7.26-.74 10.96l-.09 2.39c-.06 5.4.75 8.49 4.4 12.73 2.2 1.86 2.2 1.86 4.56 3.25l2.32 1.45L816 801l3 2-3 9-2.31-.5c-8.68-1.46-8.68-1.46-16.93.71-6.13 5.08-12.54 12.31-13.95 20.35-.21 5.1 1.87 9.02 4.19 13.44.68 1.66 1.35 3.33 2 5l-7 4-1.54-1.43c-6.32-5.7-11.1-9.22-19.86-8.92-5.66.76-10 2.75-14.04 6.79-2.33 5.33-2.91 10.8-3.56 16.56h-9l-.75-4c-1.29-5.71-2.9-11.1-7.56-14.88-6.78-2.83-13.36-4.32-20.69-3.12-4.16 2-7.55 4.8-11.09 7.73L692 855c-3.01-.65-4.5-1.41-6.5-3.75-.75-3.37.95-5.21 2.5-8.25 1.62-6.6.64-12.5-1-19 2.4-1.23 4.82-2.43 7.25-3.63l2.07-1.06c5.08-2.47 5.08-2.47 7.74-1.77L706 819l3.17 1.88 1.75 1.04c11.16 6.6 21.23 9.27 34.33 6.36 13.37-4.22 23.97-11.09 31.2-23.28a53.45 53.45 0 0 0 4.85-36.21c-5.36-16.1-16.78-24.46-31.3-31.79v-19l5.5-.19c7.73-.65 12.5-3.25 17.5-9.12l2-2.69ZM350 162c3.98 2.28 6.54 4.63 8 9 .23 3.15.4 6.3.52 9.46.25 5.1.25 5.1 2.48 9.54 3.66 2.49 7.5 2.31 11.76 2.34l2.25.05c3.18.06 6.36.1 9.53.14l6.97.13 2.18.01c5.08.1 5.08.1 7.31 2.33.26 2.86.26 2.86.27 6.47v5.96c-.02 2.06 0 4.12 0 6.18v3.92l-.01 3.61C401 224 401 224 399 226c-1.9.25-1.9.25-4.28.26l-2.73.02h-3l-3.14.01-10.35.01-7.16.01H353.3c-6.44 0-12.87.02-19.3.04-4.94.01-9.87.02-14.81.01-2.37 0-4.75 0-7.12.02-3.31.01-6.63 0-9.94 0-.99 0-1.97 0-2.99.02l-2.73-.03h-2.38c-2.58-.47-3.46-1.3-5.03-3.37-.39-2.77-.39-2.77-.4-6.1l-.01-3.61.04-3.79-.04-3.79.01-3.62.01-3.32c.39-2.77.39-2.77 1.44-4.63 3.03-1.77 6.1-1.52 9.5-1.48l4.56-.03 7.15.01c2.3 0 4.61-.01 6.92-.04l2.15.04c3.86-.06 5.55-.54 8.62-2.96 2.68-3.5 2.65-5.75 2.68-10.12.06-6.6 1.04-10.88 5.43-15.94 4.32-2.38 8.12-2.63 12.94-1.62ZM612 582c2.03.92 4.08 1.78 6.14 2.64 2.27.96 4.53 1.94 6.79 2.93l2.38 1.04 2.44 1.08A20585.26 20585.26 0 0 0 651 599a228500.08 228500.08 0 0 0 26.7 11.72A7668.97 7668.97 0 0 0 715 627v2l-3.03 1.42a36469.22 36469.22 0 0 0-22.95 10.79l-2.16 1.01-2.06.97-1.95.92c-1.75.84-3.48 1.74-5.2 2.63-3.23 1.53-4.31 1.43-7.65.26-2.34-1.05-4.6-2.14-6.88-3.31L661 642.6c-3.9-1.99-7.78-4.02-11.65-6.07a1385.97 1385.97 0 0 0-42.63-21.49 849.45 849.45 0 0 0-36.28-16.94l-2.6-1.15-2.2-.94C564 595 564 595 563 592c4.86-2.29 9.75-4.51 14.67-6.68 1.66-.75 3.32-1.51 4.97-2.29 11.44-5.38 17.76-7.44 29.36-1.03Z"/>
<path fill="#343435" d="m626.74 336.37 2.3-.02c2.55-.02 5.08 0 7.62.02l5.47-.02c4.95-.02 9.9 0 14.84.01 5.18.02 10.36 0 15.53 0 8.7 0 17.4.02 26.1.04 10.04.04 20.1.04 30.14.02 9.68-.02 19.35-.01 29.02 0h12.34c4.85 0 9.7 0 14.54.04h5.33c2.43-.01 4.86 0 7.29.03l2.13-.03c4.95.08 7.79 1.44 11.61 4.54 1.53 3.06 1.23 5.62 1 9-1.22 2.75-2.15 4.42-4.64 6.12-3.27 1.22-6.39 1.16-9.82 1.15l-2.3.01-7.58.01-5.44.02c-4.93.02-9.86.02-14.78.02l-12.34.02c-9.7.02-19.41.02-29.11.02-10.01 0-20.02.02-30.04.05-8.59.03-17.18.04-25.78.04-5.13 0-10.26 0-15.4.02-4.82.02-9.65.02-14.48 0l-5.31.02c-2.42.02-4.84.01-7.26 0l-2.12.03c-4.96-.07-7.76-1.46-11.6-4.53-2.1-2.64-2-4.01-2-7.44 2.12-7.55 7.5-9.31 14.74-9.19Z"/>
<path fill="#343434" d="m623.78 420.7 2.86-.03h3.07l3.18-.03 6.64-.01c3.4 0 6.78-.04 10.16-.08l6.46-.01 3.07-.04c4.34.02 7.03.06 10.83 2.28 3.1 3.52 4.2 6.21 4.26 10.9l.04 2.79.02 3 .03 3.1.03 6.48c0 3.3.06 6.6.1 9.91.02 2.1.02 4.2.03 6.31l.06 2.99c-.03 4.53-.11 7.73-3.03 11.35-3.32 3.07-4.75 3.52-9.13 3.57l-2.85.04-3.1.02-3.17.02-6.67.04c-3.4.01-6.78.06-10.18.1l-6.47.03-3.07.05c-5.77-.02-9.54-.34-13.95-4.48-2.82-4.45-2.32-9.76-2.34-14.87 0-.95 0-1.9-.02-2.88l-.01-6.04c0-3.07-.04-6.13-.08-9.2l-.01-5.88-.04-2.76c.04-5.96.92-9.54 4.5-14.37 2.97-1.89 5.3-2.26 8.78-2.3Z"/>
<path fill="#363636" d="M785 556c5.08 2.34 8.6 6.56 12.13 10.77a230.6 230.6 0 0 0 6.25 7.04L808 579l2.57 2.8c7 7.94 7 7.94 7.24 12.58-.92 4.1-1.55 5.93-4.81 8.62-4.8 1.6-4.8 1.6-8 1-3.07-1.97-5.5-4.36-8-7l-3-3-1-1 .02 2.47c.06 7.7.1 15.4.14 23.09.01 3.95.03 7.9.07 11.86.03 3.82.05 7.64.05 11.46l.04 4.37c.02 2.04.02 4.08.02 6.12l.02 3.52c-.4 3.46-1.31 5.32-3.36 8.11-3.22 2.33-6.1 2.32-10 2-2.85-.9-3.81-1.75-5.6-4.16-1.7-3.45-1.76-5.8-1.74-9.65v-2.01a2653.3 2653.3 0 0 0 .06-11.1c.01-3.98.04-7.96.07-11.95A6142.29 6142.29 0 0 1 773 591h-1.99l-.77 1.74c-2.9 5.32-7.15 9.6-12.92 11.45-3.72-.21-5.41-.87-8.31-3.19-2.5-3.75-2.45-5.55-2-10 2.61-4.37 5.75-8.22 9.06-12.06l2.92-3.4 1.5-1.76a553.76 553.76 0 0 0 6.02-7.18l2.8-3.37c4.64-5.56 8.14-8.7 15.7-7.23Z"/>
<path fill="#333" d="M274.63 368.5c7.2 4.22 12.59 10.01 15.71 17.82 2.3 9.36 1.63 19.35-3.34 27.68-5.57 8.17-13.3 13.06-23 15-9.11.75-17.07-1.5-24.18-7.34-6.94-6.35-10.91-13.12-12.06-22.63-.32-9.1 2.53-16.46 8.37-23.4 10.47-10.65 24.72-13.45 38.5-7.13ZM276 466c7.66 5.5 13.1 11.56 15 21 .77 10.2-.46 18.87-7 27-6.98 7.38-14.28 11.13-24.5 11.5-10.22-.37-17.51-4.12-24.5-11.5-5.46-6.64-7.65-14.97-7.35-23.5a35.1 35.1 0 0 1 12.53-22.26c11.1-7.73 23.71-8.83 35.82-2.24Z"/>
<path fill="#323333" d="M276.2 274.25c6.57 4.6 13.05 11.73 14.8 19.75 1.08 10.94-.23 19.7-7.25 28.31-6.9 7.3-14.5 10.67-24.56 11.06-9.5-.2-16.35-3.6-23.21-10.08-6.18-7.15-8.37-15.1-8.26-24.35.75-7.87 4.7-15.39 10.28-20.94 11.65-8.66 25.21-11.15 38.2-3.75ZM331.06 477.37l4.03-.02c3.64-.02 7.28 0 10.92.01 3.8.02 7.62 0 11.43 0 6.4 0 12.8.02 19.2.04 7.39.04 14.78.04 22.18.02 7.12-.02 14.23-.01 21.35 0h9.08c3.57 0 7.13 0 10.7.04l5.79-.01 3.5.04h3.02c3.5.65 5.19 2.09 7.74 4.51 1.6 3.22 1.61 6.52 1 10-2.18 2.7-3.91 4.46-7 6-1.76.1-3.52.14-5.29.15l-3.4.02h-3.74l-3.93.03a4159.25 4159.25 0 0 1-17.39.05l-20.91.04c-8.05.01-16.1.04-24.15.08-6.22.03-12.44.04-18.66.05-3.71 0-7.43 0-11.14.03-4.15.03-8.3.03-12.44.02l-3.72.04c-6.33-.04-10.5-.1-15.23-4.51-1.14-2.27-1.26-3.78-1.37-6.31l-.15-2.3c.6-2.74 1.59-4.38 3.62-6.32 4.43-2.5 10.03-1.75 14.96-1.7Z"/>
<path fill="#313232" d="m324.33 381.85 3.42-.02h3.77l3.97-.03a4221.97 4221.97 0 0 1 17.51-.05l21.07-.04c8.11-.01 16.22-.04 24.33-.08 6.26-.03 12.53-.04 18.8-.05 3.74 0 7.48 0 11.23-.03 4.17-.03 8.35-.03 12.53-.02l3.75-.04c6.34.04 10.54.08 15.29 4.51 1.6 3.2 1.5 6.52 1 10-2.12 3.44-3.15 4.72-7 6-1.82.1-3.63.14-5.45.15l-3.43.02h-3.77l-3.97.03a5118 5118 0 0 1-17.51.05l-21.08.04c-8.1.01-16.21.04-24.32.08-6.27.03-12.53.04-18.8.05-3.75 0-7.49 0-11.23.03-4.18.03-8.35.03-12.53.02l-3.75.04-3.45-.02h-3c-3.48-.63-5.17-2.08-7.71-4.49-1.6-3.2-1.5-6.53-1-10 3.3-5.16 5.4-6.12 11.33-6.15Z"/>
<path fill="#343434" d="m332.09 285.37 4-.02c3.6-.02 7.2 0 10.82.01 3.78.02 7.56 0 11.34 0 6.34 0 12.69.02 19.03.04 7.34.04 14.67.04 22 .02 7.06-.02 14.12-.01 21.18 0h9c4.2 0 8.4.02 12.58.05l3.77-.02 3.47.04h3c3.48.65 5.18 2.1 7.72 4.51 1.57 3.15 1.35 5.52 1 9-2 3.48-4.12 5.7-8 7-1.79.1-3.58.14-5.37.15l-3.38.02h-3.7l-3.9.03a4954.16 4954.16 0 0 1-17.24.05l-20.74.04c-7.98.01-15.96.04-23.94.08-6.17.03-12.34.04-18.5.05-3.69 0-7.37 0-11.06.03-4.1.03-8.22.03-12.33.02l-3.69.04c-6.3-.04-10.42-.13-15.15-4.51-1.13-2.26-1.3-3.8-1.44-6.31l-.18-2.3c.77-2.95 2.14-4.44 4.5-6.32 4.67-2.36 10.1-1.75 15.2-1.7Z"/>
<path fill="#333434" d="m628.3 377.84 2.97-.02a3461.81 3461.81 0 0 1 16.5-.04l14.18-.02c6.06 0 12.12-.03 18.18-.06 4.66-.02 9.31-.02 13.96-.02a1246 1246 0 0 1 16.08-.03c.93-.02 1.86-.02 2.8-.03 5.96.03 9.5.85 13.84 5.2 1.64 3 1.66 4.8 1.19 8.18-3.16 5.58-3.16 5.58-6 7-1.37.1-2.74.14-4.12.15l-2.61.02h-2.87a238258603.92 238258603.92 0 0 0-12.95.07l-3.42.01-17.91.05c-6.18 0-12.35.04-18.52.08-4.75.03-9.49.03-14.23.04l-6.83.03c-3.18.03-6.36.03-9.55.02l-2.85.04c-4.25-.04-6.53-.13-10.2-2.41-3-3.24-3.33-5.63-3.3-10.06.6-3.39 2.78-4.96 5.36-7.04 2.17-2.17 7.3-1.16 10.3-1.16Z"/>
<path fill="#323232" d="m327.87 320.82 2.78-.02 9.15-.04 3.15-.01 16.51-.05c5.7 0 11.38-.04 17.07-.08 4.37-.03 8.75-.03 13.12-.04 2.1 0 4.2-.01 6.29-.03 2.93-.03 5.87-.03 8.8-.02l2.63-.04c4.08.04 6.12.19 9.65 2.41 3.05 3.23 3.37 5.6 3.34 10.06-.6 3.42-2.73 4.97-5.36 7.04-3.34 1.67-7.1 1.17-10.78 1.18a197593156.66 197593156.66 0 0 0-11.8.06l-3.12.01-16.34.05c-5.63 0-11.26.04-16.88.08-4.33.03-8.65.03-12.98.04-2.07 0-4.15.01-6.22.03-2.9.03-5.81.03-8.72.02l-2.6.04c-4.05-.04-6.06-.2-9.57-2.41-3.09-3.25-3.32-5.58-3.28-10.06.45-3.17 2.04-4.86 4.29-7.04 3.36-1.68 7.17-1.17 10.87-1.18Z"/>
<path fill="#353535" d="m327.93 512.82 2.49-.02 8.16-.04 2.81-.01 14.75-.05c5.07 0 10.15-.04 15.22-.08 3.9-.03 7.81-.03 11.71-.04l5.62-.03c2.62-.03 5.24-.03 7.86-.02l2.33-.04c5.2.05 8.11 1.25 12.12 4.51 2.1 2.66 2 3.99 1.94 7.44-1.12 4.23-2.57 5.84-5.94 8.56-3.7 1.23-7.12 1.16-10.97 1.16l-2.46.02a2383.32 2383.32 0 0 1-13.66.04l-11.75.02c-5.02 0-10.03.03-15.05.06-3.86.02-7.71.02-11.57.02l-5.55.03h-7.76l-2.31.03c-4.49-.03-7.37-.58-10.92-3.38-2.67-4-2.83-7.3-2-12 4.58-5.78 7.94-6.15 14.93-6.18Z"/>
<path fill="#343434" d="m328.21 416.82 2.57-.02 8.45-.04 2.92-.01 15.27-.05c5.26 0 10.51-.04 15.77-.08 4.04-.03 8.08-.03 12.13-.04l5.81-.03a706 706 0 0 1 8.14-.02l2.42-.04c5.21.05 8.17 1.07 12.31 4.51 1.13 2.26 1.3 3.8 1.44 6.31l.18 2.3c-.79 3.03-2.36 4.4-4.76 6.32-3.41 1.97-6.86 1.77-10.7 1.72l-2.64.02c-2.86.03-5.72.01-8.58 0h-5.99c-4.17.02-8.35 0-12.53-.02-5.34-.03-10.69-.01-16.03.02-4.12.02-8.24.01-12.36 0l-5.91.01c-2.76.01-5.51 0-8.27-.03l-2.46.03c-4.09-.08-6.65-.48-9.9-3.08-2.49-2.6-2.49-2.6-3.25-4.88.14-4.36.33-6.18 3.13-9.72 4.33-3.3 7.57-3.16 12.84-3.18Z"/>
<path fill="#D4FFE0" d="M773 454h46c-3.66 4.28-7.17 8.3-11.12 12.25l-1.4 1.4-2.9 2.9-4.35 4.36c-4.7 4.7-9.47 9.28-14.53 13.6a112 112 0 0 0-6.64 6.43A183.27 183.27 0 0 1 774 499h-1v-45Z"/>
<path fill="#D4FFE0" d="M751 759c3.82 1.42 5.8 2.46 8.19 5.81l1.48 2.02c4.29 6.99 4.2 14.24 3.33 22.17-2.9 9.61-8.34 15.26-16.93 20.09-6.05 2.73-13.85 3.28-20.17 1.23-1.65-.82-1.65-.82-3.9-2.32a19.81 19.81 0 0 1 6.62-4.9l2.09-1.01 4.31-2.04c5.82-2.81 11-5.34 13.44-11.76 1.25-5.3 1.13-10.8 1.23-16.23l.1-3.8c.08-3.09.15-6.17.21-9.26Z"/>
<path fill="#D4FFE0" d="M632 441h22v22h-22v-22Z"/>
<path fill="#D4FFE0" d="M265 483c2.98 2.07 4.6 3.63 5.63 7.16.58 3.71.63 6.18-.75 9.71-2.96 3.35-5.38 4.9-9.82 5.57-3.9-.56-6-2-9.06-4.44-2.69-4.03-2.67-7.26-2-12a15.1 15.1 0 0 1 6.31-6.38c3.64-.84 6.08-.59 9.69.38Z"/>
<path fill="#D4FFE0" d="M263 386c3.08 1.63 5.26 3.03 7.38 5.81.94 3.3 1.03 5.77.62 9.19-1.78 2.97-3.85 5.43-7 7-5.3.35-8.73.51-13-3-2.31-2.97-2.47-6.25-2.4-9.96.71-3.66 2.78-5.48 5.4-8.04 3.11-1.55 5.56-1.29 9-1Z"/>
<path fill="#D4FFE0" d="M259.19 290.63c3.57.02 5.54.46 8.31 2.75 3.47 3.64 3.47 3.64 3.55 6.6-.33 4.4-.63 6.5-3.49 10.02-3.76 2.94-5.77 3.46-10.56 3-3.66-2.04-5.67-3.5-8-7a24.9 24.9 0 0 1 0-9c2.44-3 2.44-3 5-5 1.55-1.55 3.04-1.28 5.19-1.38Z"/>
<path fill="#444343" d="m732 643 .18 3.54.26 4.65.12 2.33.12 2.27.11 2.08c.17 2.18.17 2.18.72 4.45.48 2.65.6 5.03.57 7.72l-.02 3-.04 3.27-.03 3.46a5731.51 5731.51 0 0 1-.18 19.16l-.18 18.54A50863.63 50863.63 0 0 1 733 782h-1l-1-30h-1l-1-108-4 2-3-1c5.9-3.35 5.9-3.35 10-2Z"/>
<path fill="#3F3F3F" d="m407 529 2 1-3 1v2c-3.14 1.57-6.5 1.13-9.94 1.11h-2.48a3105.44 3105.44 0 0 1-13.8-.02l-14.86-.02-15.16-.02L320 534l1-3 3.18-.03a28709.68 28709.68 0 0 0 44.78-.47 8915.7 8915.7 0 0 0 28.1-.3l2.36-.01c3.92.02 3.92.02 7.58-1.19Z"/>
<path fill="#282828" d="M768 565c0 5.4-2.3 8.74-5.81 12.69l-2.02 2.32c-2.3 2.11-4.23 3.03-7.17 3.99a29.9 29.9 0 0 1 5.04-7.67l1.76-2.01 1.83-2.07 1.85-2.11c1.5-1.72 3-3.43 4.52-5.14Z"/>
<path fill="#444" d="M812 192h1v37l-3 1v-13h1l1-25Z"/>
<path fill="#252525" d="M771 214c0 3 0 3-2.12 5.3l-5.5 5.13c-2.35 2.54-3.3 4.34-4.38 7.57-1.5 2.31-1.5 2.31-3 4h-2c2.08-9.22 10.49-15.64 17-22Z"/>
<path fill="#151415" d="m608 580 10 2v2l3.81 1.19c5.6 1.85 10.87 4.3 16.19 6.81-3.89 1.3-5 .4-8.7-1.24l-3.35-1.48-3.51-1.6-3.52-1.55c-8.64-3.85-8.64-3.85-10.92-6.13Z"/>
<path fill="#1F1F1F" d="M231 288c1 3 1 3 0 6-.22 2.23-.4 4.46-.56 6.69l-.26 3.57L230 307h2l-1 6c-3.27-3.27-3.17-6.76-3.25-11.25.03-5.24 1.1-9 3.25-13.75Z"/>
<path fill="#3E3E3F" d="m380 791 4 1-2 1.94c-2.46 2.48-4.87 5-7.25 7.56l-2.08 2.22c-1.82 2.48-2.3 4.25-2.67 7.28h-1c-.46-3.08-.44-5.25 1.16-7.97 1.55-2.07 3.17-4.06 4.84-6.03l1.51-1.84c1.15-1.4 2.32-2.78 3.49-4.16Z"/>
<path fill="#242525" d="M709.63 844.94a274653940.9 274653940.9 0 0 0 4.37.06c-2.18 2.18-3.36 2.57-6.25 3.44-2.95.92-5.4 1.9-8.19 3.31L697 853l-2-1 3.88-2.94 2.17-1.65c3.08-2.23 4.82-2.53 8.58-2.47Z"/>
<path fill="#262626" d="M751 738c9.6 2.7 9.6 2.7 13 7h-6v-2l-7-4v-1Z"/>
<path fill="#232323" d="m617 338 2 1c-1.75 3.88-1.75 3.88-4 5-.4 2.32-.74 4.66-1 7l-2-2c.15-4.06.4-6.3 3.06-9.44L617 338Z"/>
<path fill="#252525" d="m276 180 3 1-2.38 2.19c-2.46 2.64-3.55 4.41-4.62 7.81-.65-1.77-.65-1.77-1-4 1-1.92 1-1.92 2.44-3.75l1.43-1.86L276 180Z"/>
<path fill="#242324" d="m608 580 10 2v3a27.06 27.06 0 0 1-10-5Z"/>
<path fill="#1F1F1F" d="m242 467 1 3c-.76.45-1.53.9-2.31 1.38A152.72 152.72 0 0 0 235 475c1.5-3.8 3.76-5.61 7-8Z"/>
</svg>