<svg width="28" height="28" viewBox="0 0 28 28" fill="none" xmlns="http://www.w3.org/2000/svg">
    <path d="M8.4 22.4C6.86 22.4 5.614 23.66 5.614 25.2C5.614 26.74 6.86 28 8.4 28C9.94 28 11.2 26.74 11.2 25.2C11.2 23.66 9.94 22.4 8.4 22.4ZM22.4 22.4C20.86 22.4 19.614 23.66 19.614 25.2C19.614 26.74 20.86 28 22.4 28C23.94 28 25.2 26.74 25.2 25.2C25.2 23.66 23.94 22.4 22.4 22.4ZM9.94 15.4H22.064L28 4.144L25.55 2.8L20.37 12.6H10.542L4.578 0H0V2.8H2.8L7.84 13.426L3.654 21H25.2V18.2H8.4L9.94 15.4ZM15.4 0L21 5.6L15.4 11.2L13.426 9.226L15.638 7H9.8V4.2H15.638L13.412 1.974L15.4 0Z"
          fill="#D4FFED"/>
</svg>
