<svg width="30" height="28" viewBox="0 0 30 28" fill="none" xmlns="http://www.w3.org/2000/svg">
    <path fill-rule="evenodd" clip-rule="evenodd"
          d="M12.7404 0.259961C13.1725 0.19414 13.6799 0.11272 13.8678 0.0789339C14.8436 -0.0964621 16.5727 0.0271141 18.1275 0.383385C22.0644 1.28548 25.7068 4.14196 27.8004 7.96924C28.8327 9.85644 29.4679 11.7202 29.8682 14.0368C30.0162 14.8932 30.0484 18.106 29.9194 19.1351C29.7317 20.631 29.2148 22.5454 28.6127 23.9744C28.1046 25.1803 27.2203 26.6963 26.4751 27.6386L26.1893 28H19.3682V27.9239V24.8802C19.3682 23.2061 19.3451 21.8385 19.3169 21.841C19.2887 21.8435 18.6046 22.7157 17.7966 23.7794L16.3276 25.7133L14.9495 25.7152C14.1916 25.7163 13.5258 25.7367 13.4701 25.7605C13.3996 25.7906 12.9065 25.1982 11.8548 23.8201C11.0222 22.7291 10.3274 21.8364 10.3107 21.8364C10.2941 21.8364 10.2805 23.2061 10.2805 24.8802V27.9239V28H3.80778L3.38175 27.4264C1.70382 25.1673 0.545461 22.282 0.1234 19.3105C-0.0396307 18.1623 -0.0414756 15.4631 0.119983 14.2888C1.11627 7.04387 6.34267 1.23411 12.7404 0.259961ZM9.18259 10.6013C10.0206 8.19791 11.9987 6.51418 14.3028 6.24313C14.5896 6.20942 14.9166 6.19261 15.0293 6.20585C15.1421 6.21909 15.4342 6.25067 15.6785 6.27601C17.249 6.43907 18.8861 7.46117 19.8795 8.8988C21.3737 11.0615 21.598 13.9609 20.4555 16.3443C20.0867 17.1135 19.6885 17.668 19.0176 18.3468C18.7031 18.665 17.6617 19.9057 16.7036 21.1039C15.7454 22.302 14.943 23.2737 14.9206 23.2632C14.8981 23.2527 14.0857 22.2559 13.1151 21.0482C12.1446 19.8403 11.107 18.5905 10.8093 18.2707C10.1185 17.5286 9.72545 16.9454 9.3959 16.1737C9.09513 15.4696 9.01607 15.1902 8.87716 14.3412C8.68058 13.1401 8.79783 11.7049 9.18259 10.6013ZM21.7936 21.8671C22.1706 21.4446 22.6586 21.193 23.3278 21.0759C23.8634 20.9823 24.8189 21.0599 25.5071 21.2531C26.1774 21.4413 26.1833 21.4502 26.1931 22.293C26.2011 22.9778 26.1514 23.041 25.7994 22.7935C24.8092 22.0974 23.3122 22.0181 22.945 22.6423C22.8108 22.8704 22.869 23.1645 23.0786 23.3175C23.164 23.3798 23.6384 23.533 24.1327 23.658C25.4715 23.9965 25.906 24.2408 26.206 24.8242C26.341 25.0867 26.3718 25.2523 26.3718 25.7172C26.3718 26.2059 26.3442 26.3402 26.1796 26.6521C25.5507 27.8433 23.6292 28.2559 21.7596 27.601L21.2472 27.4215V26.6518C21.2472 26.2284 21.2706 25.8559 21.2992 25.824C21.3279 25.7921 21.4371 25.8366 21.5417 25.9228C21.8556 26.1812 22.4159 26.4722 22.8319 26.5929C23.2956 26.7274 24.0237 26.7342 24.3497 26.607C24.8427 26.4147 24.9689 25.8687 24.5851 25.5887C24.4867 25.5169 24.0183 25.3619 23.5442 25.2442C22.1769 24.905 21.625 24.526 21.3788 23.7579C21.1591 23.0722 21.3029 22.4171 21.7936 21.8671ZM3.83244 27.7527C3.80983 27.6585 3.79083 26.169 3.79035 24.4426L3.7894 21.3038L5.30969 21.3049C7.02807 21.3061 7.50425 21.3877 8.04329 21.7729C8.49418 22.0951 8.71878 22.5412 8.761 23.1985C8.80535 23.889 8.65496 24.4498 8.30758 24.8894C7.79737 25.5349 7.12715 25.7933 5.96332 25.7933H5.36094V26.8586V27.9239H4.61733C3.90391 27.9239 3.872 27.917 3.83244 27.7527ZM5.36094 24.5758V23.5485V22.5213H5.89308C6.61031 22.5213 6.99151 22.7237 7.13316 23.1798C7.21358 23.439 7.21618 23.5523 7.14751 23.8075C6.99439 24.3766 6.65261 24.5746 5.82215 24.5753L5.36094 24.5758Z"
          fill="#D4FFE0"/>
</svg>
