<svg width="152" height="24" viewBox="0 0 152 24" fill="none" xmlns="http://www.w3.org/2000/svg">
    <path d="M0.475743 23.1683V18.6535C3.09233 19.4851 5.35211 19.8416 7.37402 19.8416C10.1095 19.8416 11.5368 19.1287 11.5368 17.703C11.5368 17.1089 11.2989 16.7525 10.9421 16.2772C10.5853 15.802 9.51487 15.3267 7.73083 14.6139C4.6385 13.4257 2.73552 12.3564 1.78404 11.4059C0.594679 10.2178 0 8.79208 0 7.0099C0 4.75248 0.832551 2.9703 2.61659 1.78218C4.40063 0.712871 6.66041 0.118812 9.39593 0.118812C10.9421 0.118812 13.0829 0.356436 16.0563 0.950495V5.34653C13.9155 4.51485 11.8936 4.0396 10.1095 4.0396C7.49296 4.0396 6.18466 4.75247 6.18466 6.17822C6.18466 6.65347 6.42254 7.12871 6.89828 7.48515L10.4664 9.26733C13.3208 10.4554 15.2238 11.6436 16.0563 12.4752C17.1268 13.5446 17.7214 14.9703 17.7214 16.7525C17.7214 19.2475 16.651 21.1485 14.3912 22.4554C12.6072 23.5248 10.3474 24 7.49296 24C5.35211 24 2.9734 23.7624 0.475743 23.1683ZM21.5274 23.5248V0.475248H27.9499V23.5248H21.5274ZM33.8967 23.5248V0.475248H50.4288V4.63366H40.0814V9.86139H49.1205V13.6634H40.0814V19.1287H50.6667V23.5248H33.8967ZM54.9484 23.5248V0.475248H63.3928L69.2207 15.2079L75.1674 0.475248H83.1362V23.5248H76.9515V7.24752L70.1721 23.7624H66.1283L59.4679 7.24752V23.5248H54.9484ZM89.0829 23.5248V0.475248H105.615V4.63366H95.2676V9.86139H104.307V13.6634H95.2676V19.1287H105.853V23.5248H89.0829ZM110.135 23.5248V0.475248H117.628L125.596 15.9208V0.475248H130.116V23.5248H122.861L114.654 7.9604V23.5248H110.135ZM134.754 23.1683V18.6535C137.371 19.4851 139.631 19.8416 141.653 19.8416C144.388 19.8416 145.815 19.1287 145.815 17.703C145.815 17.1089 145.577 16.7525 145.221 16.2772C144.864 15.9208 143.793 15.3267 142.009 14.6139C139.036 13.4257 137.014 12.3564 136.063 11.4059C134.873 10.2178 134.279 8.79208 134.279 7.0099C134.279 4.75248 135.111 2.9703 136.895 1.78218C138.679 0.594059 140.939 0 143.674 0C145.221 0 147.243 0.237624 149.74 0.712871L150.335 0.831683V5.22772C148.194 4.39604 146.172 3.92079 144.388 3.92079C141.772 3.92079 140.463 4.63366 140.463 6.05941C140.463 6.53465 140.701 7.0099 141.177 7.36634C141.534 7.60396 142.842 8.19802 144.745 9.14851C147.599 10.3366 149.383 11.5248 150.335 12.3564C151.405 13.4257 152 14.8515 152 16.6337C152 19.1287 150.93 21.0297 148.789 22.3366C147.005 23.4059 144.745 23.8812 141.89 23.8812C139.512 24 137.133 23.7624 134.754 23.1683Z" fill="white" />
</svg>